# Blender v2.82 (sub 7) OBJ File: 'Bar_Stool_Retopo.blend'
# www.blender.org
mtllib Bar_Stool_Mapped.mtl
o Plane
v 1.220697 21.564663 1.961319
v 1.206222 23.620399 1.897148
v 2.014062 21.571379 0.985621
v 1.969780 23.619198 0.910410
v 2.231633 21.544685 -0.341125
v 2.243852 23.666313 -0.376152
v 1.401266 21.554817 -1.562230
v 1.459980 23.669968 -1.620550
v 1.615142 30.712481 2.458691
v 2.620061 30.664238 1.154018
v 2.772265 30.636951 -0.526017
v 1.846773 30.545017 -1.938313
v 1.144271 12.171797 1.748349
v 2.108238 12.106091 0.992581
v 2.324442 11.677649 0.171172
v 1.744934 11.656960 -1.456133
v 5.808558 35.122604 10.627565
v 10.830215 35.026161 5.640931
v 11.964427 35.247337 -1.988758
v 7.989656 35.081116 -9.289619
v 1.052541 10.126519 1.593054
v 2.066892 10.270668 0.943556
v 2.321043 10.627023 0.207939
v 1.807975 10.601576 -1.407080
v 1.531617 1.924391 2.129696
v 2.223988 1.764210 1.494612
v 2.733154 1.687038 0.300542
v 2.084455 1.839779 -1.213949
v 4.177539 11.577809 1.619341
v 4.262793 11.625910 1.000627
v 6.114435 11.581242 3.389892
v 4.410378 10.758976 1.120549
v 4.185208 10.948809 1.708612
v 6.493629 11.681029 2.792921
v 6.682716 10.914226 2.668334
v 6.068984 10.986966 3.559307
v 6.369966 11.596904 4.975903
v 7.104459 11.655517 5.064426
v 7.122031 10.792476 5.152251
v 6.306242 10.859971 5.004894
v 7.077988 10.754144 3.788755
v 6.257511 11.014765 4.102048
v 6.346893 11.526366 4.122363
v 7.227850 11.568433 3.771878
v 5.574769 11.600553 5.823158
v 5.898064 11.574191 6.389612
v 5.890088 10.965501 6.490202
v 5.521782 10.768521 5.933489
v 3.079539 11.511267 7.090048
v 3.415022 11.604720 7.664451
v 3.426614 11.016811 7.801203
v 3.162179 10.827174 7.117101
v 1.323691 11.577873 8.122306
v 1.675662 11.607934 8.563274
v 1.724115 10.978121 8.659750
v 1.468529 10.906130 7.979327
v 0.874215 11.576361 9.055216
v 0.704443 11.472558 8.452837
v 0.901339 10.982042 9.126535
v 0.705598 10.960771 8.444264
v 2.225135 11.449674 7.500966
v 2.509099 11.606930 8.117207
v 2.282893 10.850096 7.552049
v 2.541766 11.006301 8.239347
v 4.375130 10.811247 6.524006
v 4.337290 11.541030 6.476142
v 4.672582 11.600391 7.042933
v 4.676659 10.991657 7.172727
v 6.019347 11.581308 5.437768
v 6.594512 11.631660 5.803383
v 6.611720 10.887383 5.924654
v 6.010834 10.811830 5.485439
v 5.237353 11.503892 2.422812
v 5.393063 11.722889 1.899534
v 5.616138 10.760391 1.853120
v 5.253869 11.015268 2.510959
v 3.258765 11.559458 1.156679
v 3.313667 11.626332 0.623424
v 3.247205 10.920336 1.138786
v 3.350194 10.740450 0.698417
v 1.129780 16.349434 1.627973
v 2.030549 16.360462 0.993830
v 1.496161 16.733496 -1.663570
v 2.329635 16.666080 -0.086541
v 2.091644 19.142475 1.027862
v 2.251652 19.185942 -0.213855
v 1.250809 19.147833 1.962696
v 1.452888 19.220932 -1.614467
v 1.278650 26.971796 1.890406
v 1.585426 26.992352 -1.707938
v 2.289216 26.999859 -0.433375
v 2.116482 26.985813 0.862578
v 1.307140 6.143814 1.867097
v 2.014530 6.152000 1.056610
v 1.789855 6.363495 -1.188475
v 2.208447 6.203653 0.400447
v 2.322810 11.152337 0.189561
v 1.779759 11.129633 -1.433772
v 6.750659 11.139038 2.605726
v 4.419199 11.287468 0.878517
v 7.344711 11.238390 5.234319
v 7.370692 11.307543 3.700037
v 5.943585 11.242281 6.520768
v 3.461216 11.282970 7.815417
v 1.743574 11.294131 8.692944
v 0.923550 11.280418 9.154634
v 2.566627 11.290947 8.259031
v 4.718997 11.258646 7.195120
v 6.701037 11.240937 5.989516
v 5.693436 11.307520 1.614427
v 3.390580 11.246672 0.472493
v 2.266246 21.564392 0.353527
v 2.230367 23.639555 0.309556
v 2.732201 30.592022 0.322325
v 2.253125 11.891853 0.593788
v 12.174472 34.983360 1.732329
v 4.216815 11.726397 1.316466
v 6.293981 11.721458 3.097837
v 6.701887 11.724437 5.005089
v 6.783060 11.728894 3.944393
v 5.718354 11.727505 6.077540
v 3.201920 11.702340 7.285984
v 1.440045 11.701974 8.241006
v 0.676458 11.614511 8.580089
v 2.315418 11.690829 7.711471
v 4.469501 11.714772 6.691255
v 6.270668 11.722487 5.580651
v 5.258414 11.656713 2.225167
v 3.238996 11.708248 0.977861
v 2.246068 16.512081 0.465686
v 2.292848 19.161667 0.399313
v 2.309182 26.991617 0.213229
v 2.242904 10.446169 0.614883
v 2.645846 1.649099 0.899379
v 4.247738 10.740605 1.512728
v 6.558416 10.717964 2.974786
v 6.690407 10.692514 5.066748
v 6.479375 10.770383 3.997441
v 5.779986 10.752105 6.331489
v 3.335611 10.719869 7.542972
v 1.606480 10.693243 8.334639
v 0.668523 10.810221 8.579187
v 2.461478 10.720936 7.988780
v 4.571416 10.724306 6.937470
v 6.339489 10.695544 5.732708
v 5.310030 10.790258 2.323554
v 3.240480 10.797835 1.027466
v 2.172813 6.172518 0.760601
v 0.636754 21.576151 2.177860
v 0.635192 23.595324 2.131335
v 0.817160 30.654461 2.730856
v 0.588624 12.162115 2.011277
v 3.209874 35.122654 11.698332
v 0.568090 10.037242 1.951722
v 0.941841 1.870731 2.480917
v 0.565016 16.438011 1.628826
v 0.634053 19.152496 2.235259
v 0.661150 26.990007 2.188688
v 0.717729 5.992384 2.227971
v 1.729815 21.572460 1.521146
v 1.676189 23.621309 1.442431
v 2.137972 30.633184 1.832663
v 1.674367 12.118747 1.426829
v 8.340328 35.112621 8.672724
v 1.558080 10.192815 1.252309
v 1.893793 1.858540 1.846070
v 1.676905 16.372177 1.449744
v 1.739033 19.146982 1.552877
v 1.782748 26.974863 1.458186
v 1.669446 6.144733 1.462189
v 1.894955 21.546749 -0.984748
v 1.976888 23.654051 -1.122690
v 2.353487 30.532587 -1.237238
v 2.221892 11.666958 -0.702322
v 10.604097 35.246704 -5.705095
v 2.238124 10.614215 -0.649042
v 2.525805 1.820612 -0.505033
v 2.093498 16.701588 -0.959091
v 1.949796 19.208595 -0.962974
v 2.036926 26.993492 -1.117601
v 2.164722 6.278267 -0.421983
v 2.229812 11.141095 -0.676812
v 0.792232 21.555479 -2.016137
v 0.833887 23.647263 -2.082730
v 0.941670 30.477261 -2.392282
v 0.932446 11.752647 -1.987923
v 4.390243 34.956970 -11.534647
v 0.971418 10.622104 -2.002593
v 1.075300 1.906883 -1.852942
v 0.812093 16.681055 -2.040344
v 0.803217 19.190731 -2.026687
v 0.858131 27.028593 -2.157682
v 1.069485 6.463144 -1.922252
v 0.948754 11.185658 -1.980609
v 6.292128 35.385353 12.317522
v 12.045266 35.326328 6.551675
v 13.611110 35.374783 -2.026731
v 9.054354 35.492542 -10.459167
v 13.510931 35.328732 2.162234
v 3.339318 35.360134 13.389923
v 9.822325 35.394432 9.757399
v 11.974741 35.380711 -6.393256
v 4.664987 35.443741 -12.954590
v 12.623846 34.873798 -2.163792
v 12.668925 34.850582 1.900256
v 8.843352 34.833916 9.254326
v 6.085512 34.862862 11.348213
v 3.446394 34.881950 12.452391
v 4.513556 34.903278 -12.069269
v 8.224563 34.908638 -9.770882
v 11.253198 35.210373 5.936774
v 11.225523 34.920372 -6.260354
v 5.670971 40.732826 11.708611
v 11.422017 40.771141 6.278897
v 12.866537 40.774143 -2.423724
v 8.200928 40.703568 -10.350510
v 12.922312 40.795876 1.674596
v 3.015394 40.731709 12.624573
v 8.966705 40.746700 9.459256
v 11.244686 40.738686 -6.845656
v 3.871732 40.640797 -12.701376
v 13.813779 37.580940 1.981453
v 12.275192 37.494118 6.622972
v 3.429926 37.574707 13.509613
v 9.618227 37.548565 10.086833
v 4.504904 37.601730 -13.184801
v 8.972096 37.579704 -10.664637
v 12.068228 37.568703 -6.995786
v 13.739711 37.523876 -2.432499
v 6.349254 37.546200 12.405863
v 13.738411 39.578438 1.887407
v 3.588266 39.612785 13.349920
v 4.561499 39.509628 -13.074709
v 12.028538 39.479370 -6.907412
v 12.243179 39.455399 6.531317
v 9.678102 39.548222 9.908828
v 8.977825 39.494259 -10.553886
v 13.670380 39.444656 -2.397742
v 6.408932 39.557735 12.262905
v 3.986867 42.153648 4.475406
v 6.276245 42.114815 2.093292
v 6.074151 42.159363 -2.153654
v 3.594018 42.242649 -4.285351
v 6.499888 42.137375 0.247591
v 1.832702 42.231617 4.540358
v 5.935682 41.999008 4.409413
v 5.320315 42.120872 -4.262745
v 1.638833 42.301384 -4.305555
v 4.090860 42.304848 -2.122130
v 4.364844 42.305225 0.277662
v 4.214675 42.271999 2.156221
v 1.872457 42.359695 -2.083386
v 2.005381 42.362835 0.309608
v 1.936859 42.337784 2.220296
v 9.040619 0.466511 8.651476
v 4.962015 0.476271 11.563667
v 11.797786 0.015823 4.887835
v 12.777709 0.482021 0.154284
v 10.296116 0.204256 7.584778
v 11.705212 0.780983 -2.613699
v 9.491198 0.755239 -7.433973
v 10.551876 0.593752 -5.254705
v 5.877875 -0.103409 -11.360043
v 9.294821 -0.853228 8.919682
v 5.072708 -0.853928 11.843117
v 11.892798 -0.853336 4.945352
v 12.883879 -0.853916 0.174266
v 10.364216 -0.853153 7.655030
v 12.501728 -0.854494 -3.095102
v 10.197415 -0.855398 -7.876857
v 11.519863 -0.855051 -5.762994
v 5.929370 -0.854742 -11.436668
v 3.381985 1.083126 7.978740
v 6.080184 1.046244 6.081029
v 8.042012 1.176725 3.560086
v 8.793492 1.178135 0.448393
v 6.978065 1.133982 5.327559
v 8.614905 1.177233 -1.759423
v 7.887735 1.182068 -3.661077
v 6.931153 1.180531 -5.208519
v 3.981187 1.187445 -7.582474
v 0.003682 21.573164 2.276691
v -1.231040 21.566338 1.956796
v -0.000017 23.578815 2.207413
v -1.204816 23.617636 1.888580
v -2.076605 21.569904 1.017266
v -1.956825 23.620886 0.901753
v -2.053091 21.518629 -0.270021
v -1.925185 23.666275 -0.259261
v -1.327083 21.553782 -1.480053
v -1.323046 23.675722 -1.478574
v -0.000206 21.569807 -2.160021
v -0.000202 23.644690 -2.214442
v 0.000112 30.712297 2.941301
v -1.615654 30.712807 2.458883
v -2.620486 30.663780 1.154056
v -2.756757 30.659931 -0.522469
v -1.842785 30.591911 -1.936925
v -0.002923 30.594986 -2.700895
v -0.000817 12.156899 2.153450
v -1.252632 12.192304 1.871244
v -2.048820 12.102583 0.957126
v -2.317611 11.677371 0.170915
v -1.740527 11.657091 -1.452173
v -0.000012 11.857174 -2.194493
v -0.000000 34.846989 12.438662
v -5.808529 35.122986 10.627512
v -10.822846 35.019867 5.637113
v -11.920671 35.229187 -1.981487
v -7.952512 35.039234 -9.246243
v 0.000000 34.888718 -12.365885
v -1.220606 10.123072 1.965981
v -2.103936 10.266069 1.001576
v -2.321549 10.627022 0.207986
v -1.792461 10.601168 -1.393962
v 0.002994 9.912666 2.127175
v 0.000063 10.608673 -2.185201
v -1.531442 1.924231 2.129452
v -2.250472 1.790010 1.512068
v -2.760789 1.719244 0.303744
v -2.265832 1.940907 -1.317880
v -0.000112 1.882605 2.644498
v -0.008099 1.865099 -2.230313
v -4.177976 11.576990 1.618536
v -4.262630 11.625488 1.000998
v -6.114609 11.580979 3.389793
v -4.410658 10.758974 1.119663
v -4.183969 10.952796 1.710980
v -6.493636 11.681049 2.792916
v -6.683480 10.911092 2.672950
v -6.068418 10.986558 3.559590
v -6.368366 11.596154 4.975165
v -7.103258 11.656890 5.063082
v -7.122375 10.795244 5.159029
v -6.307832 10.857301 5.006115
v -7.078908 10.754225 3.789366
v -6.257705 11.017113 4.106153
v -6.347184 11.526149 4.121993
v -7.227960 11.567501 3.771080
v -5.574723 11.600627 5.823091
v -5.897392 11.575130 6.389038
v -5.889944 10.964495 6.490099
v -5.522207 10.766884 5.935532
v -3.079616 11.511161 7.090201
v -3.414494 11.606326 7.663310
v -3.426734 11.014981 7.801463
v -3.161770 10.827615 7.116329
v -1.324721 11.576405 8.123951
v -1.675121 11.610993 8.563091
v -1.726139 10.979795 8.662447
v -0.005615 11.599927 8.976744
v -1.470144 10.904167 7.982537
v 0.002772 11.619828 9.475819
v -0.002339 10.911780 9.559036
v -0.874752 11.583427 9.054472
v -0.003322 10.937516 8.897724
v -0.706674 11.471449 8.455954
v -0.902336 10.969654 9.127363
v -0.708305 10.960973 8.449137
v -2.225216 11.448968 7.501043
v -2.508256 11.609321 8.115073
v -2.283414 10.850001 7.553044
v -2.542154 11.005203 8.240093
v -4.375161 10.810855 6.524043
v -4.337223 11.541904 6.476104
v -4.671922 11.602072 7.041848
v -4.676838 10.994986 7.173384
v -6.017987 11.579786 5.437644
v -6.592947 11.633565 5.801076
v -6.612895 10.888718 5.925110
v -6.012247 10.809804 5.486837
v -5.237057 11.503339 2.422068
v -5.399270 11.720901 1.891306
v -5.616603 10.760082 1.853912
v -5.253297 11.014406 2.509695
v -3.229318 11.556998 1.189094
v -3.310132 11.610923 0.633757
v -3.194484 10.881922 1.216405
v -3.350606 10.758049 0.694327
v -1.073308 16.295414 1.416872
v -1.939321 16.354015 0.931750
v -1.540912 16.731281 -1.696306
v -0.002293 16.631344 -2.195337
v -0.012638 16.516842 1.569928
v -2.236010 16.665966 -0.083592
v -2.083297 19.140060 1.025357
v -0.000639 19.152370 -2.155530
v -2.255427 19.185953 -0.214464
v -1.248473 19.149754 1.958886
v -1.511845 19.227562 -1.656758
v 0.000818 19.163424 2.316805
v -1.303173 26.972759 1.926549
v -0.000089 27.024158 2.233639
v -1.489695 27.013042 -1.635559
v -2.158499 27.029078 -0.407089
v -1.997612 26.991718 0.831352
v -0.000387 27.071758 -2.284320
v -1.300045 6.143124 1.882288
v -2.058065 6.146162 1.112105
v 0.000289 5.839857 2.340903
v -1.888793 6.359373 -1.262019
v 0.000944 6.588232 -2.215606
v -2.269556 6.196369 0.399383
v -2.323341 11.152337 0.189600
v -1.762239 11.129683 -1.417793
v -0.000827 11.232998 -2.178770
v -6.750588 11.139050 2.605787
v -4.418729 11.286063 0.878008
v -7.346003 11.248333 5.230127
v -7.372577 11.308060 3.705049
v -5.943088 11.244429 6.520728
v -3.461179 11.284638 7.815483
v -1.744570 11.298561 8.694435
v -0.004868 11.337546 9.617352
v -0.927437 11.269283 9.159744
v -2.566985 11.294033 8.259417
v -4.719287 11.260687 7.195218
v -6.702678 11.245288 5.987768
v -5.694544 11.307779 1.615445
v -3.390655 11.243782 0.479606
v -2.231783 21.569248 0.273810
v -2.056458 23.641380 0.260684
v -2.729828 30.597414 0.321467
v -2.229478 11.891997 0.587654
v -12.147684 34.949768 1.728302
v -4.216162 11.722995 1.314942
v -6.293847 11.721972 3.098287
v -6.722753 11.726938 5.013441
v -6.783136 11.729309 3.944193
v -5.715644 11.727673 6.073588
v -3.213217 11.711020 7.308612
v -1.437755 11.697990 8.236693
v 0.000354 11.721857 9.222786
v -0.676879 11.607698 8.579588
v -2.312781 11.687664 7.706429
v -4.466907 11.712481 6.686589
v -6.267071 11.721818 5.576897
v -5.258783 11.656588 2.225070
v -3.244601 11.695623 0.963122
v -2.187722 16.513103 0.455376
v -2.287246 19.162588 0.397564
v -2.127435 27.001450 0.183343
v -2.247016 10.446567 0.615674
v -2.671069 1.681484 0.908284
v -4.249836 10.738885 1.509887
v -6.558233 10.717747 2.975044
v -6.694217 10.692000 5.071040
v -6.481300 10.769985 3.997034
v -5.781885 10.754147 6.333904
v -3.338492 10.721889 7.547821
v -1.585587 10.692060 8.295753
v 0.005853 10.737470 9.075520
v -0.657578 10.841454 8.563311
v -2.446776 10.709061 7.962009
v -4.573822 10.725943 6.941997
v -6.344449 10.695815 5.737790
v -5.308428 10.790014 2.322898
v -3.239572 10.728374 1.047733
v -2.214135 6.170803 0.753838
v -0.629754 21.576948 2.205436
v -0.616591 23.598871 2.126701
v -0.817234 30.654694 2.730758
v -0.578132 12.179257 2.149139
v -3.209897 35.122707 11.698416
v -0.562252 10.022190 2.101537
v -0.941666 1.870407 2.480461
v -0.552367 16.416180 1.493656
v -0.630395 19.161198 2.227141
v -0.652045 26.991543 2.194754
v -0.716651 5.998594 2.161118
v -1.723829 21.567108 1.555851
v -1.657491 23.624846 1.440772
v -2.137975 30.633120 1.832650
v -1.732913 12.152262 1.423025
v -8.340256 35.113266 8.672647
v -1.801436 10.198021 1.478834
v -1.901844 1.866117 1.854218
v -1.524094 16.343887 1.250616
v -1.738322 19.147030 1.551601
v -1.805083 26.975607 1.444920
v -1.759942 6.145243 1.541241
v -1.773634 21.548735 -0.911720
v -1.660857 23.671997 -0.912249
v -2.349851 30.568151 -1.237587
v -2.146779 11.668021 -0.674805
v -10.634892 35.261204 -5.721520
v -2.171389 10.615359 -0.625700
v -2.603290 1.880348 -0.493139
v -2.111435 16.704035 -0.931887
v -2.007170 19.219706 -0.978732
v -1.877151 27.014069 -1.026047
v -2.264677 6.277012 -0.445083
v -2.159858 11.142716 -0.650335
v -0.811514 21.582975 -1.986353
v -0.766812 23.654755 -1.965094
v -0.946243 30.510080 -2.401395
v -0.928772 11.764860 -2.007860
v -4.381128 34.917412 -11.511141
v -0.960983 10.605165 -2.008081
v -1.245838 2.054548 -2.128015
v -0.753969 16.681973 -2.125991
v -0.760656 19.184319 -2.189060
v -0.850957 27.035982 -2.100072
v -1.150159 6.480921 -2.019145
v -0.936517 11.181438 -2.014814
v 0.003041 35.347095 13.769592
v -6.291759 35.386322 12.316790
v -12.028111 35.321045 6.541195
v -13.586354 35.423893 -2.020557
v -9.051922 35.511246 -10.456348
v 0.002147 35.518272 -13.847359
v -13.508204 35.348755 2.166811
v -3.341047 35.368668 13.404869
v -9.830906 35.407101 9.764446
v -11.983611 35.476624 -6.396558
v -4.672463 35.495430 -12.976458
v -12.634185 34.840454 -2.165584
v -12.672699 34.838501 1.900809
v -8.843319 34.834068 9.254290
v -6.085507 34.862885 11.348204
v -3.446373 34.882080 12.452312
v 0.000000 34.935532 -12.991571
v -4.518655 34.871796 -12.082785
v -8.239563 34.834957 -9.788580
v -11.252926 35.205887 5.936282
v 0.000178 34.916920 12.970724
v -11.247584 34.865635 -6.272423
v 0.002113 40.712360 12.984821
v -5.650715 40.695141 11.696115
v -11.358656 40.699516 6.257008
v -12.817554 40.675438 -2.409101
v -8.163984 40.644463 -10.324436
v 0.011927 40.560562 -13.350729
v -12.878886 40.695297 1.662526
v -3.011960 40.700356 12.638542
v -8.923320 40.692856 9.428649
v -11.203053 40.650291 -6.828955
v -3.852344 40.607555 -12.691589
v -13.790861 37.586472 1.975338
v -12.264819 37.500969 6.608751
v -3.433520 37.574684 13.507984
v -0.000000 37.476082 13.933279
v -9.613830 37.552574 10.082357
v -4.505188 37.603584 -13.183329
v -8.966276 37.583374 -10.652859
v -12.048750 37.572147 -6.983528
v -13.714248 37.529121 -2.428191
v -6.351288 37.548100 12.402205
v 0.000096 37.646393 -13.923805
v -13.676699 39.589287 1.881611
v -3.587478 39.623421 13.339453
v -4.560344 39.513123 -13.055874
v -11.985787 39.485813 -6.883601
v -0.000712 39.533997 -13.828217
v -12.198936 39.466209 6.508701
v -0.000226 39.650650 13.806238
v -9.650572 39.562336 9.884647
v -8.956182 39.498940 -10.525124
v -13.616509 39.451481 -2.384507
v -6.406584 39.566032 12.242840
v -0.000142 42.244522 4.592006
v -3.984550 42.109222 4.471937
v -6.268387 42.044846 2.090388
v -6.066580 42.090923 -2.151577
v -3.591982 42.201767 -4.282825
v -0.000002 42.309639 -4.320913
v -6.491435 42.065666 0.246993
v -1.833068 42.211521 4.538926
v -5.928823 41.936260 4.404277
v -5.314426 42.062008 -4.258649
v -1.638924 42.283119 -4.304574
v -0.000060 42.360115 -2.051186
v -0.000034 42.360886 0.336702
v -0.000071 42.340210 2.274615
v -4.089139 42.258724 -2.121081
v -4.362983 42.255913 0.277269
v -4.212572 42.224205 2.154440
v -1.872842 42.338364 -2.083197
v -2.005870 42.340317 0.309479
v -1.937229 42.315987 2.219803
v -8.883484 0.289602 8.606786
v 0.007754 0.699202 12.374523
v -4.942011 0.438576 11.518578
v -11.857243 0.035711 4.914209
v -12.713922 0.426197 0.152890
v -10.118681 -0.032692 7.405376
v -12.456279 0.031542 -3.099018
v -10.112163 0.023567 -7.859032
v -11.505140 -0.133062 -5.774900
v -0.019204 0.589745 -12.461195
v -5.915248 -0.101072 -11.432680
v -9.297784 -0.854935 8.917432
v 0.000452 -0.854822 12.879734
v -5.072345 -0.854931 11.843428
v -11.892437 -0.854479 4.947311
v -12.883898 -0.854095 0.175432
v -10.356269 -0.855448 7.654553
v -12.503239 -0.853903 -3.093652
v -10.197659 -0.853561 -7.875998
v -11.520506 -0.853710 -5.763048
v -0.001695 -0.853600 -12.879045
v -5.927465 -0.853365 -11.436905
v -0.000036 1.109724 8.509088
v -3.375369 1.168501 7.984880
v -6.082599 1.185429 6.084228
v -8.037475 1.170280 3.556030
v -8.789036 1.164120 0.449607
v -6.991764 1.178860 5.325733
v -8.603869 1.100773 -1.761001
v -7.891766 1.146112 -3.640642
v -6.898727 1.177214 -5.200124
v -3.981169 1.187422 -7.582489
v 0.000049 1.203625 -8.132423
v 1.098406 11.149158 1.670701
v 2.087565 11.188378 0.968068
v 0.001088 11.034783 2.140313
v 6.091710 11.284104 3.474600
v 4.181374 11.263309 1.663977
v 6.338103 11.228437 4.990398
v 6.302202 11.270564 4.112206
v 5.548275 11.184538 5.878324
v 3.120859 11.169221 7.103574
v 1.396110 11.242002 8.050816
v -0.004468 11.268722 8.937234
v 0.705020 11.216665 8.448551
v 2.254014 11.149883 7.526507
v 4.356210 11.176139 6.500074
v 6.015090 11.196570 5.461603
v 5.245611 11.259580 2.466886
v 3.252985 11.239898 1.147733
v 0.578357 11.099679 1.981499
v 1.616223 11.155781 1.339569
v -1.236619 11.157687 1.918613
v -2.076378 11.184325 0.979351
v -6.091514 11.283769 3.474691
v -4.180972 11.264893 1.664758
v -6.338099 11.226728 4.990641
v -6.302444 11.271630 4.114073
v -5.548465 11.183755 5.879312
v -3.120693 11.169387 7.103264
v -1.397433 11.240287 8.053244
v -0.707490 11.216211 8.452545
v -2.254315 11.149484 7.527044
v -4.356192 11.176380 6.500073
v -6.015117 11.194796 5.462240
v -5.245177 11.258872 2.465881
v -3.211901 11.219460 1.202749
v -0.570192 11.100724 2.125338
v -1.767174 11.175141 1.450930
v 4.337700 33.575733 7.762300
v 0.000039 33.396729 9.107424
v 5.835015 33.490059 -6.711118
v 7.950470 33.496201 4.067128
v 8.740239 33.630226 -1.475695
v -0.001025 33.382675 -8.975849
v 8.862557 33.443077 1.237764
v 2.370620 33.555416 8.552954
v 6.164827 33.541439 6.273545
v 7.710163 33.593208 -4.137976
v 3.180642 33.385696 -8.327927
v -4.337861 33.576099 7.762332
v -5.809501 33.479317 -6.682470
v -7.945835 33.491951 4.064662
v -8.706390 33.626503 -1.469731
v -8.844334 33.423164 1.234848
v -2.370661 33.555534 8.552975
v -6.164781 33.541836 6.273491
v -7.728880 33.615097 -4.148763
v -3.176328 33.371521 -8.315861
v 0.000071 32.229248 6.425725
v 5.632230 32.264553 2.800192
v 6.144717 32.328426 -1.062672
v -5.629796 32.261955 2.798815
v -6.118845 32.336315 -1.057758
v 3.153637 32.330482 5.455715
v 4.100495 32.209236 -4.635386
v -0.001851 32.170284 -6.246820
v 6.196414 32.203129 0.839632
v 1.695007 32.293766 6.020875
v 4.413514 32.276615 4.342168
v 5.380500 32.262119 -2.876420
v 2.206895 32.120792 -5.746465
v -3.153950 32.330830 5.455818
v -4.084343 32.223560 -4.618592
v -6.185084 32.194221 0.837611
v -1.695063 32.293934 6.020844
v -4.413489 32.276810 4.342132
v -5.389495 32.289955 -2.882668
v -2.206446 32.127060 -5.743610
v 5.108641 34.386513 9.264111
v 6.964357 34.324001 -8.062624
v -0.000488 34.172058 -10.752716
v 10.598476 34.250408 1.496987
v 2.810510 34.376873 10.201584
v 7.305102 34.364964 7.531059
v 9.227000 34.459877 -4.959371
v 3.814647 34.209267 -10.008709
v -5.108702 34.386890 9.264097
v -6.932746 34.296936 -8.026255
v -10.575764 34.223324 1.493489
v -2.810541 34.376957 10.201637
v -7.305042 34.365490 7.530993
v -9.252048 34.477894 -4.973114
v -3.807817 34.181789 -9.990646
v 0.000019 34.156876 10.853472
v 9.459870 34.298119 4.892027
v 10.430177 34.477825 -1.744614
v -9.453802 34.292801 4.888852
v -10.391134 34.466537 -1.737964
v 1.467057 29.066261 2.208597
v 1.731758 28.981543 -1.836929
v 2.398443 29.045418 1.025760
v -0.001807 29.044466 -2.517567
v 0.000024 29.089203 2.629870
v 2.559682 29.036322 -0.485247
v 2.546037 29.007538 0.274313
v 0.748502 29.041790 2.492256
v 1.981643 29.023212 1.667861
v 2.214173 28.975084 -1.184588
v 0.904906 28.959555 -2.289038
v -1.478136 29.066868 2.224611
v -1.687395 29.016903 -1.804298
v -2.346368 29.047760 1.012039
v -2.493472 29.062046 -0.471692
v -2.464724 29.014885 0.260680
v -0.744537 29.042595 2.494871
v -1.991474 29.023502 1.662016
v -2.141823 29.004053 -1.144491
v -0.904309 28.981182 -2.268787
v 0.000092 31.460705 4.660389
v 4.106155 31.453773 1.966180
v 4.436110 31.471464 -0.790783
v -4.105169 31.452263 1.965520
v -4.415488 31.487000 -0.786561
v 2.374179 31.510744 3.937314
v 2.958677 31.366081 -3.268950
v -0.002394 31.372181 -4.450325
v 4.441318 31.386883 0.577545
v 1.250257 31.463234 4.354032
v 3.260641 31.443995 3.070761
v 3.846905 31.385874 -2.045950
v 1.565886 31.288120 -4.047113
v -2.374593 31.511080 3.937461
v -2.948688 31.396908 -3.259962
v -4.434525 31.385220 0.576113
v -1.250323 31.463434 4.353966
v -3.260630 31.444057 3.070737
v -3.849501 31.417625 -2.049210
v -1.567981 31.307838 -4.050322
vt 0.561321 0.677580
vt 0.561529 0.686842
vt 0.530071 0.687356
vt 0.530379 0.677656
vt 0.530231 0.697595
vt 0.561538 0.696834
vt 0.561677 0.705865
vt 0.530499 0.707048
vt 0.530527 0.717175
vt 0.561980 0.716016
vt 0.562483 0.726381
vt 0.530550 0.727673
vt 0.531350 0.739624
vt 0.562775 0.737210
vt 0.563127 0.748505
vt 0.531896 0.750295
vt 0.533185 0.761634
vt 0.563599 0.759664
vt 0.563997 0.771262
vt 0.534475 0.773803
vt 0.443264 0.679164
vt 0.443218 0.690994
vt 0.417210 0.692172
vt 0.417817 0.679845
vt 0.450824 0.748331
vt 0.452681 0.760297
vt 0.429572 0.764534
vt 0.427474 0.752081
vt 0.444701 0.702328
vt 0.445259 0.713994
vt 0.420035 0.716125
vt 0.419525 0.703932
vt 0.455645 0.773902
vt 0.457153 0.787632
vt 0.435060 0.793257
vt 0.433675 0.778712
vt 0.447153 0.725477
vt 0.448069 0.736890
vt 0.423691 0.740527
vt 0.422792 0.728135
vt 0.638805 0.694263
vt 0.639182 0.685313
vt 0.702917 0.687335
vt 0.703339 0.696514
vt 0.634345 0.758773
vt 0.633713 0.747336
vt 0.708585 0.744646
vt 0.706623 0.758895
vt 0.637894 0.676439
vt 0.636817 0.667268
vt 0.703876 0.669380
vt 0.703453 0.678282
vt 0.636852 0.711897
vt 0.639074 0.703191
vt 0.703218 0.705583
vt 0.706202 0.711952
vt 0.634227 0.733758
vt 0.634621 0.720301
vt 0.709225 0.718395
vt 0.708912 0.731448
vt 0.660998 0.082681
vt 0.632380 0.108060
vt 0.614412 0.091141
vt 0.646860 0.062148
vt 0.609108 0.144335
vt 0.590358 0.194500
vt 0.565430 0.190406
vt 0.587250 0.132488
vt 0.591926 0.250861
vt 0.611462 0.297585
vt 0.589535 0.309473
vt 0.566785 0.255719
vt 0.645044 0.338456
vt 0.694194 0.372362
vt 0.684970 0.396334
vt 0.627988 0.357064
vt 0.750926 0.384585
vt 0.811406 0.375489
vt 0.819946 0.399760
vt 0.750192 0.410682
vt 0.717770 0.697162
vt 0.718252 0.687912
vt 0.733851 0.688512
vt 0.732469 0.697791
vt 0.716716 0.731349
vt 0.717053 0.718380
vt 0.724920 0.718436
vt 0.724540 0.731243
vt 0.714968 0.758985
vt 0.716378 0.744365
vt 0.724178 0.744115
vt 0.723252 0.759172
vt 0.719297 0.678818
vt 0.720514 0.669851
vt 0.737608 0.670209
vt 0.735523 0.679296
vt 0.795077 0.700388
vt 0.795582 0.691928
vt 0.860128 0.694489
vt 0.860905 0.701421
vt 0.798288 0.681232
vt 0.800731 0.669908
vt 0.861248 0.670242
vt 0.861237 0.684308
vt 0.785012 0.760555
vt 0.788092 0.745133
vt 0.856080 0.752569
vt 0.852354 0.769732
vt 0.790658 0.732135
vt 0.792913 0.719416
vt 0.861772 0.728465
vt 0.858156 0.740413
vt 0.908502 0.565534
vt 0.912051 0.568121
vt 0.908479 0.586284
vt 0.903736 0.583672
vt 0.893855 0.563717
vt 0.901500 0.563819
vt 0.899043 0.581288
vt 0.892863 0.582048
vt 0.917643 0.569831
vt 0.922745 0.571454
vt 0.918519 0.588787
vt 0.913531 0.587497
vt 0.877252 0.564346
vt 0.877631 0.544450
vt 0.884890 0.543693
vt 0.883605 0.563701
vt 0.793839 0.713854
vt 0.794488 0.708685
vt 0.862016 0.708690
vt 0.863184 0.719561
vt 0.904133 0.605471
vt 0.907342 0.607630
vt 0.904012 0.627811
vt 0.899382 0.624989
vt 0.874067 0.604244
vt 0.882395 0.603850
vt 0.883695 0.621678
vt 0.879261 0.624051
vt 0.911094 0.608606
vt 0.914905 0.609606
vt 0.913376 0.630803
vt 0.908603 0.629295
vt 0.890793 0.603385
vt 0.899168 0.603357
vt 0.895015 0.622605
vt 0.886781 0.621771
vt 0.871773 0.636685
vt 0.880304 0.635965
vt 0.880828 0.651166
vt 0.875513 0.651599
vt 0.907774 0.640141
vt 0.911994 0.640247
vt 0.912952 0.655110
vt 0.906970 0.654347
vt 0.896687 0.638145
vt 0.903645 0.640052
vt 0.901018 0.653527
vt 0.896032 0.652048
vt 0.887652 0.636115
vt 0.890896 0.636844
vt 0.891236 0.650852
vt 0.885980 0.651359
vt 0.896272 0.662153
vt 0.900991 0.663222
vt 0.900343 0.672780
vt 0.895454 0.673155
vt 0.885279 0.661737
vt 0.890868 0.661257
vt 0.889715 0.673436
vt 0.884585 0.673677
vt 0.875752 0.661757
vt 0.880765 0.661588
vt 0.880570 0.673772
vt 0.876424 0.673460
vt 0.907185 0.663701
vt 0.913386 0.664267
vt 0.913638 0.674921
vt 0.907018 0.673810
vt 0.906297 0.695006
vt 0.912037 0.695187
vt 0.910699 0.716263
vt 0.905328 0.716434
vt 0.895877 0.694393
vt 0.900568 0.694842
vt 0.899995 0.716611
vt 0.895398 0.716044
vt 0.883681 0.694060
vt 0.889419 0.693892
vt 0.888532 0.715413
vt 0.882965 0.715560
vt 0.873936 0.693614
vt 0.879572 0.694232
vt 0.878786 0.715744
vt 0.872524 0.714902
vt 0.894962 0.731169
vt 0.900030 0.731184
vt 0.896493 0.747511
vt 0.893509 0.746615
vt 0.882459 0.731117
vt 0.887916 0.731108
vt 0.887392 0.745596
vt 0.882134 0.745489
vt 0.904657 0.731347
vt 0.909340 0.731510
vt 0.907070 0.745677
vt 0.901754 0.746596
vt 0.871897 0.730313
vt 0.877985 0.731175
vt 0.877251 0.745442
vt 0.870463 0.744483
vt 0.894163 0.759246
vt 0.896779 0.758261
vt 0.892182 0.771622
vt 0.888503 0.771498
vt 0.881862 0.759316
vt 0.886406 0.759498
vt 0.885308 0.771474
vt 0.881967 0.771534
vt 0.868112 0.759551
vt 0.877513 0.759547
vt 0.877785 0.771498
vt 0.871803 0.771334
vt 0.900590 0.758722
vt 0.904410 0.759205
vt 0.902879 0.771591
vt 0.897759 0.771604
vt 0.877175 0.583385
vt 0.883848 0.583016
vt 0.927346 0.552483
vt 0.940856 0.558786
vt 0.893200 0.544837
vt 0.901516 0.544663
vt 0.908945 0.546147
vt 0.916093 0.545646
vt 0.597353 0.735568
vt 0.597386 0.723695
vt 0.597488 0.714660
vt 0.597481 0.705028
vt 0.596291 0.677187
vt 0.595919 0.668239
vt 0.597969 0.758732
vt 0.597401 0.747552
vt 0.597064 0.695878
vt 0.596758 0.686714
vt 0.561444 0.668064
vt 0.479084 0.732262
vt 0.478147 0.722094
vt 0.485262 0.780475
vt 0.483599 0.767783
vt 0.477351 0.711282
vt 0.476731 0.700288
vt 0.482083 0.754905
vt 0.480533 0.743560
vt 0.476307 0.689494
vt 0.475640 0.678298
vt 0.727925 0.712329
vt 0.730836 0.706806
vt 0.872429 0.583817
vt 0.874651 0.565556
vt 0.869461 0.605311
vt 0.869165 0.652413
vt 0.869431 0.661818
vt 0.869057 0.672608
vt 0.866754 0.692802
vt 0.865165 0.713942
vt 0.864236 0.729406
vt 0.863659 0.743964
vt 0.865031 0.758357
vt 0.867955 0.771503
vt 0.867334 0.627632
vt 0.866516 0.637528
vt 0.870829 0.542236
vt 0.530654 0.667575
vt 0.475092 0.667438
vt 0.699312 0.058510
vt 0.690849 0.034505
vt 0.442268 0.667505
vt 0.416469 0.667557
vt 0.716912 0.706166
vt 0.704538 0.772817
vt 0.713636 0.773165
vt 0.722722 0.773617
vt 0.781592 0.776821
vt 0.598624 0.770473
vt 0.634875 0.770842
vt 0.850594 0.786588
vt 0.558348 0.255866
vt 0.579349 0.316028
vt 0.562089 0.320063
vt 0.542536 0.256462
vt 0.606081 0.081491
vt 0.576392 0.126012
vt 0.557327 0.122894
vt 0.596346 0.066720
vt 0.639343 0.051789
vt 0.635109 0.035636
vt 0.751205 0.419301
vt 0.823309 0.409179
vt 0.828799 0.424756
vt 0.753580 0.435953
vt 0.683904 0.405103
vt 0.674321 0.422060
vt 0.557027 0.187992
vt 0.541760 0.182959
vt 0.688029 0.026510
vt 0.683218 0.012988
vt 0.621077 0.369179
vt 0.609272 0.376763
vt 0.230333 0.466948
vt 0.164947 0.439468
vt 0.174665 0.420598
vt 0.237314 0.445012
vt 0.427276 0.391685
vt 0.389254 0.429330
vt 0.381118 0.409572
vt 0.411586 0.379430
vt 0.292919 0.468361
vt 0.293368 0.446745
vt 0.067941 0.274051
vt 0.079305 0.202320
vt 0.098915 0.201445
vt 0.087603 0.267311
vt 0.116093 0.400996
vt 0.080927 0.340900
vt 0.098698 0.329082
vt 0.131512 0.384493
vt 0.350660 0.452445
vt 0.347517 0.430671
vt 0.110862 0.144585
vt 0.123759 0.154838
vt 0.438716 0.485678
vt 0.383127 0.520192
vt 0.365671 0.481489
vt 0.411772 0.453508
vt 0.013615 0.182492
vt 0.057317 0.102891
vt 0.088293 0.127000
vt 0.051700 0.191169
vt 0.296650 0.541854
vt 0.299510 0.500425
vt 0.131567 0.506829
vt 0.065941 0.452320
vt 0.092101 0.420567
vt 0.149166 0.468176
vt 0.017484 0.373174
vt 0.000191 0.277696
vt 0.037851 0.273343
vt 0.052318 0.350449
vt 0.218211 0.537488
vt 0.225317 0.498450
vt 0.485249 0.437170
vt 0.454470 0.412978
vt 0.264838 0.368957
vt 0.282451 0.348376
vt 0.221360 0.230484
vt 0.207773 0.248215
vt 0.301708 0.325513
vt 0.215239 0.339029
vt 0.236964 0.352554
vt 0.318022 0.305968
vt 0.191505 0.269322
vt 0.177109 0.287984
vt 0.193218 0.313940
vt 0.254360 0.291169
vt 0.229693 0.269452
vt 0.245830 0.249538
vt 0.271679 0.269707
vt 0.275607 0.306720
vt 0.292722 0.286159
vt 0.255406 0.330799
vt 0.233899 0.316315
vt 0.210488 0.292943
vt 0.285641 0.643085
vt 0.238571 0.624339
vt 0.251677 0.569545
vt 0.320999 0.596098
vt 0.319019 0.679662
vt 0.371656 0.651770
vt 0.339089 0.772103
vt 0.339123 0.723650
vt 0.402286 0.716855
vt 0.394763 0.789078
vt 0.329576 0.693961
vt 0.387553 0.671646
vt 0.311812 0.829726
vt 0.329083 0.804067
vt 0.372714 0.827370
vt 0.347000 0.864797
vt 0.292082 0.848776
vt 0.320290 0.891408
vt 0.240098 0.872199
vt 0.253903 0.937062
vt 0.180559 0.865392
vt 0.164755 0.926787
vt 0.416087 0.714782
vt 0.416087 0.793908
vt 0.338556 0.913344
vt 0.257101 0.949023
vt 0.390859 0.639182
vt 0.403654 0.665146
vt 0.333379 0.578758
vt 0.396825 0.845542
vt 0.368946 0.884610
vt 0.257624 0.543055
vt 0.158880 0.951390
vt 0.201038 0.779971
vt 0.218066 0.778223
vt 0.235016 0.772613
vt 0.243960 0.763857
vt 0.250153 0.752886
vt 0.251169 0.743925
vt 0.243029 0.727507
vt 0.238681 0.722146
vt 0.246823 0.733790
vt 0.231360 0.714988
vt 0.218327 0.709401
vt 0.561537 0.658633
vt 0.530499 0.657748
vt 0.530476 0.647688
vt 0.561939 0.649033
vt 0.530754 0.637589
vt 0.531294 0.627827
vt 0.562688 0.630239
vt 0.562286 0.639695
vt 0.531518 0.617546
vt 0.531519 0.609127
vt 0.564284 0.610706
vt 0.563237 0.619115
vt 0.532142 0.598203
vt 0.532825 0.588121
vt 0.564564 0.589676
vt 0.564254 0.600348
vt 0.534127 0.577048
vt 0.535401 0.565392
vt 0.565004 0.567051
vt 0.564544 0.579085
vt 0.443218 0.655907
vt 0.417760 0.655258
vt 0.417092 0.642943
vt 0.443121 0.643932
vt 0.450289 0.587352
vt 0.426668 0.583033
vt 0.428905 0.570557
vt 0.452302 0.575517
vt 0.444563 0.632332
vt 0.419278 0.631172
vt 0.419559 0.618959
vt 0.445002 0.620919
vt 0.455852 0.562487
vt 0.433782 0.556601
vt 0.436284 0.542236
vt 0.458230 0.548841
vt 0.446810 0.609501
vt 0.422182 0.606905
vt 0.422877 0.594541
vt 0.447401 0.598452
vt 0.639578 0.642821
vt 0.703957 0.640582
vt 0.703614 0.650266
vt 0.640290 0.650371
vt 0.635048 0.577785
vt 0.707495 0.579092
vt 0.709649 0.593578
vt 0.634399 0.590973
vt 0.638407 0.658693
vt 0.703780 0.660879
vt 0.637206 0.626295
vt 0.707392 0.625936
vt 0.704451 0.632177
vt 0.639523 0.634622
vt 0.634707 0.605117
vt 0.710020 0.606619
vt 0.710398 0.619475
vt 0.635029 0.618033
vt 0.744309 0.053329
vt 0.742440 0.028465
vt 0.785863 0.030707
vt 0.782491 0.055160
vt 0.823316 0.068817
vt 0.832885 0.045867
vt 0.886078 0.077354
vt 0.869274 0.096163
vt 0.903121 0.141113
vt 0.925625 0.129173
vt 0.941177 0.185150
vt 0.916841 0.189608
vt 0.916991 0.242056
vt 0.941810 0.245804
vt 0.921436 0.311345
vt 0.899450 0.298638
vt 0.863724 0.344038
vt 0.880524 0.363749
vt 0.718546 0.640260
vt 0.733175 0.640006
vt 0.734442 0.651366
vt 0.718928 0.650819
vt 0.717858 0.606696
vt 0.725733 0.606761
vt 0.726087 0.619390
vt 0.718236 0.619445
vt 0.716090 0.578794
vt 0.724584 0.578747
vt 0.725374 0.594024
vt 0.717504 0.593832
vt 0.719675 0.661267
vt 0.735983 0.661539
vt 0.795420 0.639344
vt 0.861044 0.639100
vt 0.860329 0.646025
vt 0.795674 0.648298
vt 0.798128 0.658376
vt 0.861380 0.656188
vt 0.785910 0.577235
vt 0.851322 0.568440
vt 0.855722 0.587101
vt 0.789246 0.593031
vt 0.791629 0.606691
vt 0.858138 0.600068
vt 0.861881 0.611767
vt 0.793722 0.619680
vt 0.907558 0.977697
vt 0.903582 0.959743
vt 0.908323 0.957156
vt 0.912047 0.975550
vt 0.893916 0.979566
vt 0.892715 0.961416
vt 0.898878 0.962110
vt 0.901285 0.979419
vt 0.918023 0.973603
vt 0.913189 0.955970
vt 0.918116 0.954680
vt 0.923475 0.971799
vt 0.877679 0.979262
vt 0.884300 0.979743
vt 0.885076 0.999577
vt 0.877761 0.998576
vt 0.794435 0.625184
vt 0.863184 0.620792
vt 0.861989 0.631759
vt 0.795100 0.631208
vt 0.903921 0.938005
vt 0.899147 0.918493
vt 0.903784 0.915671
vt 0.907121 0.935875
vt 0.873765 0.939359
vt 0.878956 0.919448
vt 0.883369 0.921772
vt 0.882114 0.939685
vt 0.910871 0.934910
vt 0.908385 0.914188
vt 0.913169 0.912682
vt 0.914683 0.933925
vt 0.890559 0.940113
vt 0.886513 0.921727
vt 0.894767 0.920887
vt 0.898823 0.940146
vt 0.871462 0.906772
vt 0.875257 0.891758
vt 0.880560 0.892165
vt 0.880010 0.907484
vt 0.907540 0.903291
vt 0.906808 0.889071
vt 0.912819 0.888307
vt 0.911746 0.903158
vt 0.896440 0.905308
vt 0.895488 0.891369
vt 0.900818 0.889895
vt 0.903425 0.903408
vt 0.887382 0.907285
vt 0.885777 0.892084
vt 0.890988 0.892572
vt 0.890628 0.906620
vt 0.896123 0.881232
vt 0.895314 0.870187
vt 0.900154 0.870570
vt 0.900814 0.880150
vt 0.885068 0.881657
vt 0.884367 0.869636
vt 0.889504 0.869890
vt 0.890667 0.882131
vt 0.875533 0.881585
vt 0.876194 0.869846
vt 0.880293 0.869541
vt 0.880500 0.881777
vt 0.907036 0.879683
vt 0.906868 0.869540
vt 0.913526 0.868431
vt 0.913259 0.879130
vt 0.906167 0.848275
vt 0.905249 0.826777
vt 0.910631 0.826959
vt 0.911937 0.848105
vt 0.895790 0.848860
vt 0.894911 0.827167
vt 0.899906 0.826589
vt 0.900408 0.848427
vt 0.883495 0.849179
vt 0.882816 0.827600
vt 0.888406 0.827765
vt 0.889259 0.849355
vt 0.873761 0.849603
vt 0.872383 0.828238
vt 0.878571 0.827406
vt 0.879389 0.848992
vt 0.894973 0.811983
vt 0.893560 0.796480
vt 0.896452 0.795599
vt 0.899967 0.811981
vt 0.882381 0.811998
vt 0.882095 0.797570
vt 0.887373 0.797469
vt 0.887866 0.812023
vt 0.904603 0.811822
vt 0.901729 0.796522
vt 0.907060 0.797447
vt 0.909297 0.811662
vt 0.871263 0.812796
vt 0.869760 0.798615
vt 0.877149 0.797613
vt 0.877830 0.811931
vt 0.894241 0.783828
vt 0.896757 0.784830
vt 0.881647 0.783704
vt 0.886480 0.783536
vt 0.867598 0.783358
vt 0.877258 0.783434
vt 0.900561 0.784375
vt 0.904375 0.783895
vt 0.877023 0.960348
vt 0.883726 0.960563
vt 0.927611 0.990846
vt 0.940856 0.983492
vt 0.893536 0.998478
vt 0.901968 0.998648
vt 0.909478 0.997152
vt 0.916445 0.998546
vt 0.598204 0.602403
vt 0.598153 0.613881
vt 0.597989 0.622674
vt 0.597767 0.632098
vt 0.596037 0.659338
vt 0.599160 0.577407
vt 0.598392 0.590456
vt 0.597073 0.640988
vt 0.596587 0.649929
vt 0.478144 0.612804
vt 0.478603 0.603427
vt 0.483933 0.569974
vt 0.486152 0.557244
vt 0.476732 0.633808
vt 0.477373 0.623413
vt 0.480341 0.592847
vt 0.482071 0.581827
vt 0.475608 0.656733
vt 0.476237 0.645189
vt 0.729038 0.625492
vt 0.731941 0.631564
vt 0.872111 0.959926
vt 0.873799 0.978482
vt 0.869150 0.938291
vt 0.868863 0.890967
vt 0.869134 0.881522
vt 0.868777 0.870670
vt 0.866480 0.850409
vt 0.864903 0.829191
vt 0.864020 0.813677
vt 0.863566 0.799081
vt 0.865109 0.784654
vt 0.866977 0.915862
vt 0.866129 0.905859
vt 0.870213 0.999809
vt 0.718188 0.631839
vt 0.705602 0.565258
vt 0.714677 0.564929
vt 0.723755 0.564440
vt 0.782417 0.560244
vt 0.599598 0.566555
vt 0.635729 0.566796
vt 0.851336 0.549902
vt 0.932648 0.123827
vt 0.945426 0.114215
vt 0.970124 0.175971
vt 0.954029 0.183734
vt 0.786302 0.017976
vt 0.784628 0.000387
vt 0.850279 0.019443
vt 0.837278 0.034026
vt 0.741801 0.015690
vt 0.734920 0.000191
vt 0.885596 0.371524
vt 0.894799 0.386643
vt 0.928937 0.318141
vt 0.947411 0.325475
vt 0.899729 0.056862
vt 0.891204 0.070117
vt 0.970124 0.249559
vt 0.954989 0.250928
vt 0.452579 0.182506
vt 0.433699 0.194366
vt 0.394922 0.138718
vt 0.410088 0.125712
vt 0.433963 0.342860
vt 0.454524 0.345651
vt 0.469060 0.242896
vt 0.448801 0.248537
vt 0.226096 0.071580
vt 0.224008 0.091686
vt 0.162749 0.118985
vt 0.159284 0.099962
vt 0.360967 0.087564
vt 0.349258 0.105478
vt 0.286942 0.086998
vt 0.294039 0.067975
vt 0.467669 0.302583
vt 0.446214 0.305111
vt 0.521107 0.380172
vt 0.483601 0.361732
vt 0.499601 0.310234
vt 0.541378 0.317906
vt 0.124457 0.041856
vt 0.141650 0.075861
vt 0.502007 0.241493
vt 0.541378 0.228721
vt 0.467453 0.077055
vt 0.434241 0.103222
vt 0.374149 0.059360
vt 0.398310 0.026993
vt 0.309715 0.000191
vt 0.296373 0.037724
vt 0.218090 0.042482
vt 0.213189 0.005193
vt 0.482042 0.169838
vt 0.518523 0.153487
vt 0.350721 0.261231
vt 0.366539 0.239162
vt 0.235227 0.212938
vt 0.333109 0.285432
vt 0.343834 0.215928
vt 0.325380 0.198031
vt 0.251723 0.191958
vt 0.295555 0.182683
vt 0.266312 0.173375
vt 0.288327 0.247686
vt 0.261218 0.229008
vt 0.308575 0.264580
vt 0.327113 0.239127
vt 0.307811 0.221693
vt 0.279355 0.204607
vt 0.188113 0.620103
vt 0.177550 0.563223
vt 0.141811 0.637749
vt 0.108581 0.589143
vt 0.082961 0.710381
vt 0.025363 0.701722
vt 0.051938 0.635253
vt 0.104537 0.667778
vt 0.084111 0.601079
vt 0.125687 0.645668
vt 0.081407 0.773089
vt 0.018245 0.793310
vt 0.014502 0.749913
vt 0.077572 0.743236
vt 0.090519 0.799021
vt 0.033331 0.828097
vt 0.124808 0.843612
vt 0.081785 0.894650
vt 0.004945 0.695726
vt 0.040781 0.626708
vt 0.073642 0.903686
vt 0.020682 0.833968
vt 0.075383 0.589663
vt 0.097078 0.572845
vt 0.173531 0.542236
vt 0.000191 0.750145
vt 0.007176 0.795821
vt 0.183270 0.774541
vt 0.171639 0.759171
vt 0.169594 0.746108
vt 0.170023 0.733756
vt 0.173381 0.725275
vt 0.188057 0.714231
vt 0.194437 0.711551
vt 0.181714 0.717977
vt 0.204185 0.708487
vt 0.838037 0.263144
vt 0.875232 0.284641
vt 0.845221 0.322327
vt 0.816802 0.288983
vt 0.848867 0.202063
vt 0.890036 0.194520
vt 0.889655 0.237927
vt 0.847669 0.231587
vt 0.773074 0.123462
vt 0.778777 0.082095
vt 0.812776 0.094096
vt 0.796588 0.132921
vt 0.722950 0.125558
vt 0.708633 0.084950
vt 0.746368 0.080717
vt 0.749531 0.122781
vt 0.822336 0.148700
vt 0.850764 0.116881
vt 0.878332 0.154264
vt 0.840261 0.174462
vt 0.802000 0.348756
vt 0.787553 0.307698
vt 0.719956 0.305403
vt 0.752977 0.311691
vt 0.751735 0.355840
vt 0.704353 0.345957
vt 0.672708 0.264381
vt 0.692684 0.286478
vt 0.663830 0.317959
vt 0.635614 0.284491
vt 0.682568 0.155317
vt 0.670161 0.177425
vt 0.633183 0.157384
vt 0.652171 0.126695
vt 0.700487 0.140034
vt 0.676570 0.105298
vt 0.659985 0.205938
vt 0.662152 0.237291
vt 0.619619 0.245510
vt 0.617815 0.199010
vt 0.716232 0.162900
vt 0.702577 0.174159
vt 0.694502 0.190618
vt 0.687746 0.210498
vt 0.690151 0.231881
vt 0.697126 0.251142
vt 0.711678 0.265755
vt 0.730227 0.278707
vt 0.753794 0.282628
vt 0.778043 0.280669
vt 0.732375 0.152291
vt 0.751613 0.150472
vt 0.769319 0.150694
vt 0.785932 0.158479
vt 0.803622 0.169647
vt 0.815199 0.187759
vt 0.821765 0.207028
vt 0.820030 0.227413
vt 0.813552 0.248992
vt 0.798093 0.267032
vt 0.789709 0.235212
vt 0.779876 0.245657
vt 0.795374 0.211864
vt 0.793115 0.223348
vt 0.765662 0.177213
vt 0.775555 0.183367
vt 0.741553 0.178322
vt 0.753640 0.177437
vt 0.785399 0.190044
vt 0.790793 0.200707
vt 0.768782 0.254349
vt 0.740229 0.252710
vt 0.754590 0.254327
vt 0.720905 0.238251
vt 0.730174 0.245574
vt 0.722063 0.192507
vt 0.718206 0.203466
vt 0.731564 0.185167
vt 0.714779 0.214938
vt 0.717416 0.226612
vn 0.2563 0.0223 0.9663
vn 0.5226 0.0221 0.8523
vn 0.5379 0.0079 0.8430
vn 0.2524 0.0077 0.9676
vn 0.7859 0.0066 0.6183
vn 0.7751 0.0277 0.6312
vn 0.9024 0.0295 0.4299
vn 0.9060 0.0035 0.4232
vn 0.9837 -0.0024 0.1797
vn 0.9860 0.0175 0.1660
vn 0.9735 -0.0056 -0.2285
vn 0.9810 -0.0174 -0.1931
vn 0.8453 -0.0356 -0.5330
vn 0.8434 -0.0174 -0.5370
vn 0.6720 -0.0136 -0.7404
vn 0.6604 -0.0390 -0.7499
vn 0.3783 -0.0314 -0.9251
vn 0.3837 -0.0123 -0.9233
vn -0.0026 0.0016 -1.0000
vn -0.0511 -0.0227 -0.9984
vn 0.2668 -0.1663 0.9493
vn 0.5500 -0.1612 0.8195
vn 0.4162 -0.6538 0.6319
vn 0.2337 -0.5970 0.7674
vn 0.8530 -0.1040 -0.5114
vn 0.6555 -0.0901 -0.7497
vn 0.5310 -0.6171 -0.5808
vn 0.7129 -0.5633 -0.4176
vn 0.7735 -0.1508 0.6156
vn 0.9170 -0.1426 0.3726
vn 0.7015 -0.6429 0.3075
vn 0.6248 -0.5877 0.5140
vn 0.3583 -0.0883 -0.9294
vn -0.0123 -0.1007 -0.9948
vn -0.0085 -0.6539 -0.7565
vn 0.3007 -0.5699 -0.7647
vn 0.9856 -0.1301 0.1076
vn 0.9691 -0.1215 -0.2148
vn 0.7502 -0.6402 -0.1655
vn 0.8084 -0.5828 0.0822
vn 0.6344 -0.0267 0.7725
vn 0.3424 -0.0414 0.9386
vn 0.4136 -0.0197 0.9102
vn 0.5990 -0.0401 0.7998
vn 0.3546 0.0052 -0.9350
vn 0.6613 0.0132 -0.7500
vn 0.6961 0.0035 -0.7179
vn 0.3750 -0.0052 -0.9270
vn 0.1315 -0.0613 0.9894
vn -0.0334 -0.0849 0.9958
vn 0.0584 0.0533 0.9969
vn 0.2618 0.0233 0.9648
vn 0.9733 0.0014 0.2296
vn 0.8691 -0.0063 0.4946
vn 0.7207 0.1711 0.6718
vn 0.7876 0.6154 0.0303
vn 0.8964 0.0187 -0.4429
vn 0.9965 0.0122 -0.0830
vn 0.8894 0.2662 -0.3715
vn 0.9317 0.0045 -0.3632
vn 0.1653 -0.9012 0.4006
vn 0.2172 -0.9009 0.3756
vn 0.0087 -0.9995 0.0289
vn 0.0529 -0.9949 0.0856
vn 0.2960 -0.9004 0.3186
vn 0.3638 -0.9055 0.2183
vn 0.1655 -0.9812 0.0994
vn 0.0786 -0.9948 0.0651
vn 0.4193 -0.9073 0.0309
vn 0.4292 -0.8952 -0.1197
vn -0.0264 -0.9993 -0.0260
vn 0.0724 -0.9971 0.0232
vn 0.4025 -0.8942 -0.1960
vn 0.3153 -0.9021 -0.2945
vn 0.0331 -0.9993 -0.0137
vn -0.0038 -0.9999 0.0083
vn 0.1691 -0.9094 -0.3799
vn 0.0023 -0.9127 -0.4086
vn 0.0032 -0.9830 -0.1834
vn 0.0488 -0.9920 -0.1161
vn 0.5786 -0.0852 0.8111
vn 0.5258 -0.0779 0.8470
vn 0.5790 0.0007 0.8153
vn 0.6048 -0.0158 0.7962
vn 0.9483 0.0045 -0.3172
vn 0.7939 -0.0244 -0.6076
vn 0.9094 -0.3048 -0.2828
vn 0.9561 -0.0135 -0.2928
vn 0.3870 0.0097 -0.9220
vn 0.7258 0.0109 -0.6878
vn 0.7592 -0.0074 -0.6507
vn 0.4185 0.0069 -0.9082
vn 0.3961 -0.0393 0.9173
vn 0.1211 -0.0186 0.9925
vn 0.0709 0.0203 0.9973
vn 0.4061 0.0184 0.9136
vn 0.6832 0.0757 0.7263
vn 0.5998 0.0833 0.7958
vn 0.4395 0.6800 0.5869
vn 0.5119 0.7083 0.4859
vn 0.3577 0.0757 0.9308
vn 0.0011 0.0660 0.9978
vn -0.0047 0.7229 0.6909
vn 0.2340 0.7339 0.6376
vn 0.4624 -0.0041 -0.8867
vn 0.7724 0.0067 -0.6351
vn 0.5235 0.7367 -0.4279
vn 0.3385 0.6878 -0.6421
vn 0.9556 0.0285 -0.2933
vn 0.9989 0.0431 0.0173
vn 0.6500 0.7598 0.0119
vn 0.6622 0.7220 -0.2004
vn 0.1465 0.9879 -0.0512
vn -0.2177 0.5195 0.8262
vn -0.4461 0.5253 0.7246
vn -0.0955 0.9830 0.1565
vn 0.3593 -0.0053 -0.9332
vn 0.2810 0.6971 -0.6596
vn 0.2517 0.8011 -0.5429
vn 0.4465 0.0809 -0.8911
vn -0.3243 0.0138 0.9458
vn -0.2526 -0.4194 0.8719
vn -0.5184 -0.3228 0.7919
vn -0.5439 0.0820 0.8351
vn 0.1195 -0.9823 0.1444
vn 0.7798 -0.6103 0.1392
vn 0.2866 -0.7864 -0.5472
vn 0.9428 0.0509 0.3293
vn 0.7851 0.0606 0.6163
vn 0.5657 0.7274 0.3882
vn 0.5904 0.7844 0.1902
vn -0.1883 0.9568 0.2214
vn -0.5729 0.5411 0.6156
vn -0.6533 0.6371 0.4089
vn -0.1096 0.9882 0.1071
vn -0.1855 -0.9498 0.2518
vn 0.3551 -0.8052 -0.4750
vn 0.5374 -0.7367 -0.4104
vn -0.0247 -0.9995 0.0199
vn -0.6816 0.1427 0.7176
vn -0.6239 -0.3865 0.6792
vn -0.7985 -0.4645 0.3829
vn -0.8618 0.1660 0.4793
vn 0.5940 0.1419 -0.7918
vn 0.2701 0.8960 -0.3525
vn 0.4111 0.8520 -0.3242
vn 0.7833 0.0359 -0.6207
vn -0.2561 -0.9666 -0.0011
vn 0.5838 -0.8005 -0.1357
vn 0.6171 -0.7550 0.2219
vn -0.0616 -0.9979 0.0190
vn -0.9734 0.1404 0.1811
vn -0.9096 -0.3944 0.1302
vn -0.7944 -0.5614 -0.2318
vn -0.9590 0.0700 -0.2744
vn -0.0118 0.9999 0.0062
vn -0.7774 0.6154 0.1298
vn -0.7233 0.6453 -0.2456
vn -0.0385 0.9992 -0.0110
vn 0.9645 0.0586 -0.2574
vn 0.6343 0.7558 -0.1625
vn 0.5862 0.7879 0.1886
vn 0.9357 0.0368 0.3508
vn -0.0598 0.9978 -0.0287
vn -0.6205 0.5369 -0.5715
vn -0.4879 0.5210 -0.7004
vn -0.0280 0.9992 -0.0284
vn 0.6894 0.0810 0.7198
vn 0.4426 0.7741 0.4526
vn 0.3721 0.7241 0.5807
vn 0.5355 0.1054 0.8379
vn 0.0937 -0.9857 0.1401
vn 0.5399 -0.6180 0.5714
vn 0.4660 -0.4831 0.7412
vn 0.1775 -0.9374 0.2995
vn -0.7511 -0.0187 -0.6599
vn -0.5814 -0.6486 -0.4910
vn -0.3957 -0.7224 -0.5669
vn -0.5670 -0.0670 -0.8210
vn -0.4487 -0.0848 -0.8896
vn -0.3326 -0.6797 -0.6537
vn -0.3363 -0.6583 -0.6735
vn -0.4357 -0.0933 -0.8952
vn -0.0686 0.9904 -0.1197
vn -0.4112 0.4360 -0.8005
vn -0.4115 0.3817 -0.8276
vn -0.1129 0.9718 -0.2071
vn 0.4602 0.1373 0.8771
vn 0.3051 0.7506 0.5860
vn 0.2765 0.7804 0.5607
vn 0.4394 0.1656 0.8828
vn 0.1457 -0.9461 0.2892
vn 0.4139 -0.4325 0.8010
vn 0.4049 -0.4140 0.8152
vn 0.1249 -0.9571 0.2615
vn -0.1368 0.9583 -0.2507
vn -0.4579 0.3397 -0.8215
vn -0.4665 0.4233 -0.7766
vn -0.1598 0.9607 -0.2271
vn 0.4496 0.1696 0.8770
vn 0.2833 0.7891 0.5449
vn 0.2805 0.7937 0.5398
vn 0.4753 0.1537 0.8663
vn -0.4780 -0.0616 -0.8762
vn -0.3691 -0.6143 -0.6973
vn -0.4287 -0.4963 -0.7549
vn -0.5148 0.0130 -0.8572
vn 0.1098 -0.9677 0.2269
vn 0.4086 -0.4275 0.8064
vn 0.3730 -0.5236 0.7660
vn -0.0058 -0.9972 0.0741
vn -0.1785 0.9427 -0.2816
vn -0.4946 0.3774 -0.7829
vn 0.0035 0.5991 -0.8006
vn 0.0009 0.9977 -0.0671
vn 0.4681 0.1296 0.8741
vn 0.3188 0.7649 0.5596
vn 0.0073 0.7525 0.6585
vn -0.0034 0.1447 0.9894
vn -0.1693 -0.9557 -0.2406
vn 0.3760 -0.5887 0.7155
vn 0.0022 -0.6126 0.7904
vn -0.0016 -0.9960 -0.0889
vn -0.5313 0.0546 -0.8454
vn -0.4882 -0.3591 -0.7954
vn 0.0054 -0.3524 -0.9358
vn 0.0002 0.0729 -0.9973
vn -0.2065 -0.9174 0.3401
vn 0.2535 -0.8300 -0.4967
vn 0.2564 -0.0523 0.9651
vn 0.6486 -0.1786 0.7398
vn 0.8637 0.0230 -0.5034
vn 0.9815 0.0132 -0.1911
vn 0.9859 0.0067 0.1668
vn 0.8944 -0.0001 0.4472
vn 0.1840 -0.0973 0.9781
vn -0.0240 -0.1185 0.9926
vn 0.3607 0.0119 -0.9326
vn 0.6672 0.0231 -0.7445
vn 0.7168 -0.0212 0.6969
vn 0.4401 -0.0593 0.8960
vn 0.0079 0.0247 0.9996
vn 0.9792 -0.0704 -0.1903
vn 0.9871 -0.0769 0.1403
vn -0.0382 -0.0652 -0.9971
vn 0.3557 -0.0584 -0.9328
vn 0.9146 -0.0852 0.3953
vn 0.7796 -0.0891 0.6199
vn 0.6596 -0.0602 -0.7492
vn 0.8607 -0.0645 -0.5049
vn 0.5490 -0.0884 0.8311
vn 0.2569 -0.0905 0.9622
vn 0.0038 0.0102 0.9999
vn 0.0010 -0.0945 0.9955
vn 0.0000 -0.9145 0.4046
vn 0.0000 -0.9945 0.1048
vn 0.0013 -0.1707 0.9853
vn 0.0002 -0.6614 0.7500
vn 0.0201 -0.0085 -0.9998
vn 0.0107 0.0017 -0.9999
vn 0.0180 0.0092 -0.9998
vn 0.0559 0.0038 -0.9984
vn 0.0582 0.0118 -0.9982
vn 0.0495 -0.0017 -0.9987
vn 0.0689 0.7298 -0.6802
vn 0.1435 -0.9886 0.0458
vn 0.0823 -0.9961 -0.0308
vn 0.8369 -0.5313 -0.1310
vn 0.8023 -0.5794 0.1433
vn 0.0627 -0.9920 0.1090
vn 0.1020 -0.9911 0.0857
vn 0.6027 -0.5536 0.5747
vn 0.4013 -0.5126 0.7591
vn 0.0464 -0.9863 0.1581
vn 0.1956 -0.5247 0.8285
vn 0.0919 -0.9658 -0.2424
vn 0.0000 -0.9478 -0.3188
vn -0.0003 -0.4786 -0.8780
vn 0.2978 -0.4971 -0.8150
vn 0.1124 -0.9851 -0.1298
vn 0.5730 -0.5055 -0.6451
vn 0.1494 -0.9861 0.0730
vn 0.7105 -0.5997 0.3681
vn -0.0001 -0.9791 0.2032
vn 0.0007 -0.5304 0.8477
vn 0.1036 -0.9924 -0.0661
vn 0.7457 -0.5361 -0.3955
vn 0.8474 0.2983 0.4392
vn 0.9423 0.3034 0.1417
vn 0.5806 0.8102 0.0802
vn 0.5183 0.8095 0.2757
vn -0.0008 0.3389 0.9408
vn 0.2390 0.3316 0.9126
vn 0.1166 0.8365 0.5354
vn -0.0026 0.8371 0.5470
vn 0.6688 0.3086 0.6764
vn 0.3952 0.8157 0.4223
vn 0.6289 0.2614 -0.7322
vn 0.3410 0.2456 -0.9074
vn 0.1753 0.7682 -0.6157
vn 0.3682 0.7804 -0.5054
vn 0.9442 0.2809 -0.1721
vn 0.8388 0.2712 -0.4721
vn 0.5220 0.7863 -0.3303
vn 0.5899 0.7981 -0.1222
vn 0.4556 0.3200 0.8307
vn 0.2451 0.8276 0.5050
vn -0.0021 0.2323 -0.9726
vn -0.0028 0.7584 -0.6518
vn 0.4693 -0.0043 0.8830
vn 0.2361 -0.0015 0.9717
vn -0.0001 -0.0038 -1.0000
vn 0.3282 -0.0080 -0.9446
vn 0.6907 -0.0084 0.7230
vn 0.9812 -0.0395 -0.1888
vn 0.9879 -0.0309 0.1521
vn 0.6400 -0.0236 -0.7680
vn 0.8627 -0.0414 -0.5040
vn 0.8862 -0.0233 0.4626
vn 0.0001 -0.0019 1.0000
vn 0.1263 0.9847 0.1198
vn 0.0645 0.9912 0.1157
vn -0.0052 0.9941 -0.1083
vn 0.0244 0.9938 -0.1083
vn 0.0253 0.9932 0.1132
vn 0.1450 0.9893 0.0132
vn 0.1357 0.9890 0.0591
vn -0.0052 0.9936 0.1131
vn 0.0679 0.9918 -0.1078
vn 0.1326 0.9855 -0.1053
vn 0.1397 0.9894 -0.0385
vn 0.0132 0.9999 0.0063
vn 0.0136 0.9998 -0.0150
vn -0.0056 0.9999 -0.0124
vn -0.0056 0.9999 0.0056
vn 0.0167 0.9994 0.0308
vn -0.0056 0.9996 0.0280
vn 0.0545 0.9978 0.0377
vn 0.0528 0.9986 0.0076
vn 0.0504 0.9985 -0.0218
vn 0.0635 0.9903 0.1236
vn 0.0051 0.9913 0.1312
vn -0.0002 0.7368 0.6760
vn 0.2837 0.7071 0.6477
vn 0.1006 0.9884 0.1134
vn 0.4548 0.7311 0.5085
vn 0.1434 0.9889 0.0389
vn 0.1667 0.9838 0.0656
vn 0.7400 0.6089 0.2856
vn 0.7384 0.6739 0.0240
vn 0.1478 0.9850 0.0887
vn 0.6258 0.6423 0.4425
vn 0.1230 0.9913 -0.0460
vn 0.1220 0.9924 -0.0136
vn 0.5606 0.8108 -0.1678
vn 0.5060 0.8285 -0.2397
vn 0.1051 0.9893 -0.1011
vn 0.4646 0.7939 -0.3923
vn 0.0749 0.9837 -0.1631
vn 0.3347 0.6662 -0.6664
vn 0.0079 0.9857 -0.1684
vn 0.0012 0.6968 -0.7173
vn 0.9308 0.1021 0.3509
vn 0.9777 0.2100 0.0009
vn 0.7012 0.4552 -0.5487
vn 0.4362 0.2972 -0.8493
vn 0.6351 0.2177 0.7411
vn 0.7937 0.1511 0.5892
vn 0.3766 0.2581 0.8897
vn 0.8505 0.4467 -0.2777
vn 0.7597 0.5396 -0.3629
vn -0.0029 0.2785 0.9604
vn 0.0048 0.2075 -0.9782
vn -0.2560 0.0234 0.9664
vn -0.2448 0.0095 0.9695
vn -0.5388 0.0083 0.8424
vn -0.5239 0.0239 0.8514
vn -0.7979 0.0161 0.6025
vn -0.9471 0.0283 0.3197
vn -0.9230 0.0422 0.3823
vn -0.7561 0.0311 0.6537
vn -0.9997 0.0221 -0.0056
vn -0.9575 -0.0015 -0.2884
vn -0.9522 0.0646 -0.2986
vn -0.9984 0.0544 -0.0104
vn -0.8820 -0.0181 -0.4710
vn -0.7515 -0.0239 -0.6592
vn -0.7373 0.0551 -0.6733
vn -0.8750 0.0674 -0.4794
vn -0.4658 -0.0210 -0.8846
vn -0.4374 0.0330 -0.8986
vn -0.2534 -0.1628 0.9536
vn -0.2308 -0.5956 0.7694
vn -0.4167 -0.6521 0.6333
vn -0.5496 -0.1554 0.8208
vn -0.8516 -0.1437 -0.5040
vn -0.7011 -0.5832 -0.4101
vn -0.5321 -0.6320 -0.5634
vn -0.6804 -0.1229 -0.7224
vn -0.8056 -0.1541 0.5720
vn -0.6317 -0.5893 0.5035
vn -0.6998 -0.6525 0.2908
vn -0.9345 -0.1683 0.3135
vn -0.3890 -0.1049 -0.9153
vn -0.3148 -0.5821 -0.7496
vn -0.9808 -0.1693 0.0965
vn -0.7971 -0.6000 0.0677
vn -0.7371 -0.6534 -0.1724
vn -0.9630 -0.1627 -0.2150
vn -0.6422 -0.0351 0.7657
vn -0.7031 0.0519 0.7091
vn -0.4710 0.0675 0.8795
vn -0.4143 -0.0257 0.9098
vn -0.3127 -0.0069 -0.9498
vn -0.3681 -0.0081 -0.9297
vn -0.7280 -0.0049 -0.6856
vn -0.6876 0.0003 -0.7261
vn -0.1890 -0.0559 0.9803
vn -0.1850 0.0672 0.9804
vn -0.9682 -0.0078 0.2500
vn -0.7774 0.6269 0.0515
vn -0.7325 0.2157 0.6456
vn -0.8323 -0.0156 0.5541
vn -0.9207 0.0061 -0.3903
vn -0.9384 0.0023 -0.3453
vn -0.8803 0.2739 -0.3873
vn -0.9977 -0.0005 -0.0679
vn -0.1654 -0.9012 0.4005
vn -0.0529 -0.9949 0.0855
vn -0.0087 -0.9995 0.0287
vn -0.2173 -0.9009 0.3756
vn -0.2958 -0.9004 0.3189
vn -0.0783 -0.9948 0.0656
vn -0.1697 -0.9800 0.1038
vn -0.3623 -0.9057 0.2201
vn -0.4172 -0.9083 0.0290
vn -0.0850 -0.9960 0.0254
vn 0.0253 -0.9993 -0.0266
vn -0.4268 -0.8960 -0.1220
vn -0.4005 -0.8957 -0.1930
vn 0.0263 -0.9994 0.0227
vn -0.0267 -0.9996 -0.0029
vn -0.3145 -0.9040 -0.2896
vn -0.1671 -0.9113 -0.3764
vn -0.0442 -0.9921 -0.1175
vn -0.7547 0.0382 0.6549
vn -0.7454 0.0199 0.6662
vn -0.4635 0.0120 0.8860
vn -0.4899 0.0211 0.8715
vn -0.9452 0.0075 -0.3262
vn -0.9560 0.0053 -0.2933
vn -0.9018 -0.2862 -0.3237
vn -0.7682 -0.0166 -0.6400
vn -0.3886 -0.0002 -0.9214
vn -0.4126 0.0079 -0.9109
vn -0.7819 0.0096 -0.6233
vn -0.7578 0.0053 -0.6524
vn -0.1613 -0.0048 0.9869
vn -0.1866 0.0069 0.9824
vn -0.7131 0.0417 0.6998
vn -0.5083 0.7104 0.4866
vn -0.3963 0.6852 0.6111
vn -0.5005 0.0406 0.8647
vn -0.2865 0.0538 0.9565
vn -0.2168 0.7387 0.6381
vn -0.4251 0.0215 -0.9048
vn -0.2811 0.7167 -0.6381
vn -0.5606 0.7391 -0.3735
vn -0.8046 0.0364 -0.5927
vn -0.9670 0.0451 -0.2505
vn -0.6989 0.7012 -0.1408
vn -0.6601 0.7505 0.0307
vn -0.9979 0.0499 0.0402
vn -0.1389 0.9889 -0.0533
vn 0.0901 0.9864 0.1371
vn 0.4269 0.5513 0.7168
vn 0.1947 0.5711 0.7974
vn -0.3581 0.0010 -0.9337
vn -0.4425 0.0814 -0.8931
vn -0.2445 0.8014 -0.5459
vn -0.2809 0.6955 -0.6613
vn 0.3156 0.0599 0.9470
vn 0.5169 0.1049 0.8495
vn 0.4875 -0.3279 0.8092
vn 0.2053 -0.4323 0.8780
vn -0.1282 -0.9850 0.1155
vn -0.3012 -0.7484 -0.5908
vn -0.7950 -0.5965 0.1102
vn -0.9513 0.0509 0.3041
vn -0.6007 0.7780 0.1841
vn -0.5819 0.7249 0.3686
vn -0.8520 0.0469 0.5215
vn 0.1884 0.9572 0.2198
vn 0.1095 0.9882 0.1066
vn 0.6537 0.6366 0.4091
vn 0.5728 0.5417 0.6151
vn 0.1862 -0.9496 0.2521
vn 0.0260 -0.9994 0.0210
vn -0.5372 -0.7380 -0.4082
vn -0.3551 -0.8053 -0.4746
vn 0.6811 0.1447 0.7177
vn 0.8618 0.1674 0.4788
vn 0.7983 -0.4645 0.3833
vn 0.6238 -0.3865 0.6793
vn -0.5948 0.1387 -0.7918
vn -0.7830 0.0346 -0.6210
vn -0.4125 0.8509 -0.3251
vn -0.2722 0.8937 -0.3565
vn 0.2542 -0.9671 -0.0002
vn 0.0564 -0.9982 0.0207
vn -0.6210 -0.7502 0.2270
vn -0.5849 -0.7997 -0.1352
vn 0.9734 0.1406 0.1808
vn 0.9593 0.0665 -0.2743
vn 0.7913 -0.5663 -0.2304
vn 0.9102 -0.3932 0.1300
vn 0.0096 0.9999 0.0057
vn 0.0276 0.9996 -0.0066
vn 0.7217 0.6472 -0.2455
vn 0.7759 0.6170 0.1313
vn -0.9650 0.0607 -0.2550
vn -0.9362 0.0458 0.3484
vn -0.5840 0.7897 0.1876
vn -0.6330 0.7562 -0.1653
vn 0.0627 0.9975 -0.0325
vn 0.0317 0.9989 -0.0339
vn 0.4891 0.5178 -0.7018
vn 0.6208 0.5336 -0.5743
vn -0.6894 0.0879 0.7190
vn -0.5354 0.1089 0.8375
vn -0.3698 0.7279 0.5773
vn -0.4393 0.7766 0.4515
vn -0.0997 -0.9842 0.1461
vn -0.1803 -0.9352 0.3047
vn -0.4671 -0.4793 0.7430
vn -0.5437 -0.6119 0.5744
vn 0.7513 -0.0225 -0.6595
vn 0.5669 -0.0692 -0.8209
vn 0.3936 -0.7260 -0.5639
vn 0.5787 -0.6534 -0.4880
vn 0.4483 -0.0851 -0.8898
vn 0.4361 -0.0931 -0.8951
vn 0.3345 -0.6560 -0.6766
vn 0.3314 -0.6821 -0.6518
vn 0.0685 0.9903 -0.1206
vn 0.1053 0.9760 -0.1907
vn 0.4098 0.3879 -0.8256
vn 0.4118 0.4383 -0.7989
vn -0.4601 0.1398 0.8767
vn -0.4393 0.1688 0.8823
vn -0.2769 0.7791 0.5624
vn -0.3059 0.7518 0.5842
vn -0.1487 -0.9438 0.2951
vn -0.1267 -0.9567 0.2620
vn -0.4028 -0.4163 0.8151
vn -0.4152 -0.4279 0.8028
vn 0.1411 0.9565 -0.2552
vn 0.1674 0.9565 -0.2389
vn 0.4701 0.4180 -0.7773
vn 0.4577 0.3402 -0.8214
vn -0.4502 0.1745 0.8757
vn -0.4765 0.1576 0.8649
vn -0.2766 0.8009 0.5311
vn -0.2794 0.7928 0.5416
vn 0.4794 -0.0630 -0.8753
vn 0.5168 0.0102 -0.8560
vn 0.4380 -0.4797 -0.7603
vn 0.3710 -0.6023 -0.7068
vn -0.0921 -0.9765 0.1950
vn 0.0377 -0.9989 0.0280
vn -0.3665 -0.5445 0.7544
vn -0.4024 -0.4419 0.8018
vn 0.1842 0.9386 -0.2916
vn 0.4970 0.3738 -0.7831
vn -0.4685 0.1264 0.8744
vn -0.3133 0.7736 0.5507
vn 0.1933 -0.9397 -0.2820
vn -0.3697 -0.6149 0.6966
vn 0.5324 0.0533 -0.8448
vn 0.4949 -0.3485 -0.7959
vn 0.1642 -0.9362 0.3108
vn -0.2674 -0.8143 -0.5151
vn -0.3864 0.0411 0.9214
vn -0.7801 -0.1719 0.6016
vn -0.8910 0.0561 -0.4505
vn -0.9817 0.0302 -0.1878
vn -0.9929 -0.0003 0.1193
vn -0.8825 -0.0297 0.4693
vn -0.2249 -0.1180 0.9672
vn -0.3272 0.0288 -0.9445
vn -0.7003 0.0515 -0.7119
vn -0.6934 -0.0627 0.7178
vn -0.4575 -0.0960 0.8840
vn -0.9923 -0.1006 0.0716
vn -0.9677 -0.1149 -0.2244
vn -0.4227 -0.0758 -0.9031
vn -0.8266 -0.0912 0.5553
vn -0.9546 -0.0925 0.2829
vn -0.8732 -0.1087 -0.4750
vn -0.7232 -0.0937 -0.6843
vn -0.2381 -0.0912 0.9669
vn -0.5486 -0.0910 0.8311
vn -0.1745 -0.9834 0.0493
vn -0.8138 -0.5632 0.1432
vn -0.8558 -0.4993 -0.1351
vn -0.1275 -0.9909 -0.0417
vn -0.0634 -0.9919 0.1097
vn -0.4023 -0.5113 0.7594
vn -0.6060 -0.5484 0.5762
vn -0.1037 -0.9907 0.0877
vn -0.0465 -0.9863 0.1583
vn -0.1961 -0.5218 0.8302
vn -0.0990 -0.9575 -0.2709
vn -0.3033 -0.4725 -0.8275
vn -0.1363 -0.9781 -0.1571
vn -0.5887 -0.4700 -0.6576
vn -0.7138 -0.5956 0.3683
vn -0.1597 -0.9840 0.0784
vn -0.7735 -0.4867 -0.4060
vn -0.1431 -0.9863 -0.0819
vn -0.8412 0.3232 0.4334
vn -0.5057 0.8207 0.2657
vn -0.5682 0.8193 0.0766
vn -0.9340 0.3284 0.1404
vn -0.1219 0.8372 0.5332
vn -0.2416 0.3382 0.9095
vn -0.6663 0.3306 0.6683
vn -0.3892 0.8256 0.4086
vn -0.6284 0.2795 -0.7259
vn -0.3659 0.7880 -0.4951
vn -0.1793 0.7713 -0.6106
vn -0.3442 0.2571 -0.9030
vn -0.9374 0.3038 -0.1700
vn -0.5779 0.8073 -0.1190
vn -0.5139 0.7950 -0.3223
vn -0.8345 0.2928 -0.4668
vn -0.4572 0.3344 0.8240
vn -0.2466 0.8335 0.4944
vn -0.2373 0.0022 0.9714
vn -0.4708 0.0018 0.8822
vn -0.3294 -0.0015 -0.9442
vn -0.6924 0.0000 0.7215
vn -0.9883 -0.0203 0.1507
vn -0.9816 -0.0298 -0.1886
vn -0.8637 -0.0319 -0.5029
vn -0.6421 -0.0145 -0.7665
vn -0.8876 -0.0131 0.4604
vn -0.0735 0.9907 0.1144
vn -0.1331 0.9841 0.1175
vn -0.0345 0.9935 -0.1080
vn -0.0353 0.9930 0.1128
vn -0.1435 0.9879 0.0577
vn -0.1528 0.9882 0.0126
vn -0.0775 0.9912 -0.1071
vn -0.1479 0.9883 -0.0381
vn -0.1409 0.9846 -0.1038
vn -0.0245 0.9997 0.0063
vn -0.0249 0.9996 -0.0151
vn -0.0280 0.9991 0.0307
vn -0.0654 0.9971 0.0374
vn -0.0639 0.9979 0.0076
vn -0.0616 0.9978 -0.0218
vn -0.0664 0.9882 0.1382
vn -0.2864 0.7168 0.6357
vn -0.1361 0.9842 0.1134
vn -0.4637 0.7508 0.4703
vn -0.1607 0.9870 -0.0000
vn -0.7492 0.6620 0.0222
vn -0.7161 0.6301 0.3002
vn -0.1720 0.9819 0.0788
vn -0.5920 0.6891 0.4178
vn -0.1826 0.9783 0.0978
vn -0.1966 0.9784 -0.0635
vn -0.7293 0.5827 -0.3584
vn -0.7662 0.6090 -0.2048
vn -0.1762 0.9829 -0.0528
vn -0.1705 0.9777 -0.1229
vn -0.5991 0.6078 -0.5211
vn -0.0994 0.9801 -0.1719
vn -0.3626 0.6046 -0.7092
vn -0.9940 0.0986 0.0468
vn -0.9163 0.1610 0.3667
vn -0.4425 0.1194 -0.8887
vn -0.7526 0.0523 -0.6564
vn -0.7625 0.3156 0.5648
vn -0.6332 0.3664 0.6817
vn -0.3769 0.3100 0.8728
vn -0.9727 0.0662 -0.2222
vn -0.8958 0.0439 -0.4422
vn -0.3117 -0.9037 -0.2935
vn -0.3135 -0.9039 -0.2909
vn -0.1661 -0.9114 -0.3765
vn -0.1642 -0.9116 -0.3767
vn -0.4279 -0.8965 -0.1151
vn -0.4272 -0.8962 -0.1197
vn -0.3995 -0.8960 -0.1938
vn -0.3977 -0.8964 -0.1954
vn -0.2225 -0.9007 0.3731
vn -0.2192 -0.9008 0.3747
vn -0.2981 -0.9006 0.3163
vn -0.3025 -0.9008 0.3113
vn -0.0000 -0.9130 0.4079
vn 0.0000 -0.9139 0.4058
vn -0.1616 -0.9017 0.4009
vn -0.1544 -0.9027 0.4016
vn -0.3687 -0.9054 0.2104
vn -0.3645 -0.9056 0.2168
vn -0.4174 -0.9082 0.0297
vn -0.4179 -0.9079 0.0310
vn 0.0012 -0.9124 -0.4092
vn -0.0010 -0.9120 -0.4103
vn 0.3119 -0.9021 -0.2982
vn 0.1611 -0.9101 -0.3818
vn 0.1664 -0.9097 -0.3805
vn 0.3141 -0.9021 -0.2958
vn 0.4305 -0.8959 -0.1098
vn 0.4010 -0.8948 -0.1964
vn 0.4020 -0.8944 -0.1961
vn 0.4296 -0.8955 -0.1163
vn 0.2225 -0.9007 0.3731
vn 0.3027 -0.9009 0.3110
vn 0.2983 -0.9006 0.3160
vn 0.2191 -0.9008 0.3747
vn 0.1543 -0.9027 0.4016
vn 0.1615 -0.9017 0.4009
vn 0.3697 -0.9051 0.2097
vn 0.4197 -0.9069 0.0363
vn 0.4194 -0.9072 0.0327
vn 0.3658 -0.9054 0.2154
vn 0.1422 -0.9042 0.4027
vn 0.2277 -0.9004 0.3707
vn 0.3104 -0.9013 0.3022
vn 0.3765 -0.9046 0.1997
vn 0.4201 -0.9065 0.0422
vn 0.4321 -0.8964 -0.0986
vn 0.3992 -0.8955 -0.1969
vn 0.3078 -0.9020 -0.3027
vn 0.1520 -0.9107 -0.3840
vn -0.0049 -0.9111 -0.4122
vn -0.0001 -0.9114 0.4114
vn -0.1423 -0.9042 0.4027
vn -0.2276 -0.9004 0.3707
vn -0.3102 -0.9012 0.3025
vn -0.3760 -0.9050 0.1990
vn -0.4188 -0.9075 0.0330
vn -0.4290 -0.8969 -0.1073
vn -0.3945 -0.8972 -0.1984
vn -0.3082 -0.9033 -0.2983
vn -0.1608 -0.9121 -0.3770
usemtl Material.001
s 1
f 149/1/1 1/2/2 2/3/3 150/4/4
f 161/5/5 160/6/6 3/7/7 4/8/8
f 113/9/9 112/10/10 5/11/11 6/12/12
f 172/13/13 171/14/14 7/15/15 8/16/16
f 184/17/17 183/18/18 292/19/19 293/20/20
f 717/21/21 710/22/22 9/23/23 151/24/24
f 719/25/25 711/26/26 12/27/27 173/28/28
f 718/29/29 712/30/30 10/31/31 162/32/32
f 720/33/33 713/34/34 299/35/35 185/36/36
f 716/37/37 715/38/38 11/39/39 114/40/40
f 167/41/41 81/42/42 13/43/43 163/44/44
f 190/45/45 83/46/46 16/47/47 186/48/48
f 156/49/49 384/50/50 300/51/51 152/52/52
f 130/53/53 82/54/54 14/55/55 115/56/56
f 178/57/57 84/58/58 15/59/59 174/60/60
f 694/61/61 690/62/62 17/63/63 153/64/64
f 695/65/65 706/66/66 18/67/67 164/68/68
f 693/69/69 707/70/70 19/71/71 116/72/72
f 696/73/73 691/74/74 20/75/75 175/76/76
f 697/77/77 692/78/78 311/79/79 187/80/80
f 632/81/81 614/82/82 21/83/83 165/84/84
f 182/85/85 97/86/86 23/87/87 176/88/88
f 194/89/89 98/90/90 24/91/91 188/92/92
f 631/93/93 616/94/94 316/95/95 154/96/96
f 170/97/97 93/98/98 25/99/99 166/100/100
f 159/101/101 400/102/102 322/103/103 155/104/104
f 193/105/105 95/106/106 28/107/107 189/108/108
f 181/109/109 96/110/110 27/111/111 177/112/112
f 129/113/113 77/114/114 29/115/115 117/116/116
f 111/117/117 78/118/118 30/119/119 100/120/120
f 630/121/121 79/122/122 33/123/123 618/124/124
f 147/125/125 133/126/126 23/127/87 80/128/127
f 148/129/128 94/130/129 26/131/130 134/132/131
f 128/133/132 73/134/133 31/135/134 118/136/135
f 146/137/136 75/138/137 35/139/138 136/140/139
f 629/141/140 76/142/141 36/143/142 617/144/143
f 110/145/144 74/146/145 34/147/146 99/148/147
f 138/149/148 41/150/149 39/151/150 137/152/151
f 620/153/152 42/154/153 40/155/154 619/156/155
f 120/157/156 43/158/157 37/159/158 119/160/159
f 102/161/160 44/162/161 38/163/162 101/164/163
f 99/148/147 34/147/146 44/162/161 102/161/160
f 118/136/135 31/135/134 43/158/157 120/157/156
f 617/144/143 36/143/142 42/154/153 620/153/152
f 136/140/139 35/139/138 41/150/149 138/149/148
f 127/165/164 69/166/165 45/167/166 121/168/167
f 109/169/168 70/170/169 46/171/170 103/172/171
f 145/173/172 71/174/173 47/175/174 139/176/175
f 628/177/176 72/178/177 48/179/178 621/180/179
f 627/181/180 65/182/181 52/183/182 622/184/183
f 126/185/184 66/186/185 49/187/186 122/188/187
f 108/189/188 67/190/189 50/191/190 104/192/191
f 144/193/192 68/194/193 51/195/194 140/196/195
f 125/197/196 61/198/197 53/199/198 123/200/199
f 107/201/200 62/202/201 54/203/202 105/204/203
f 626/205/204 63/206/205 56/207/206 623/208/207
f 143/209/208 64/210/209 55/211/210 141/212/211
f 124/213/212 58/214/213 351/215/214 433/216/215
f 106/217/216 57/218/217 353/219/218 414/220/219
f 142/221/220 59/222/221 354/223/222 452/224/223
f 625/225/224 60/226/225 356/227/226 624/228/227
f 623/208/207 56/207/206 60/226/225 625/225/224
f 141/212/211 55/211/210 59/222/221 142/221/220
f 105/204/203 54/203/202 57/218/217 106/217/216
f 123/200/199 53/199/198 58/214/213 124/213/212
f 140/196/195 51/195/194 64/210/209 143/209/208
f 622/184/183 52/183/182 63/206/205 626/205/204
f 104/192/191 50/191/190 62/202/201 107/201/200
f 122/188/187 49/187/186 61/198/197 125/197/196
f 139/176/175 47/175/174 68/194/193 144/193/192
f 103/172/171 46/171/170 67/190/189 108/189/188
f 121/168/167 45/167/166 66/186/185 126/185/184
f 621/180/179 48/179/178 65/182/181 627/181/180
f 619/156/155 40/155/154 72/178/177 628/177/176
f 137/152/151 39/151/150 71/174/173 145/173/172
f 101/164/163 38/163/162 70/170/169 109/169/168
f 119/160/159 37/159/158 69/166/165 127/165/164
f 100/120/120 30/119/119 74/146/145 110/145/144
f 618/124/124 33/123/123 76/142/141 629/141/140
f 135/229/228 32/230/229 75/138/137 146/137/136
f 117/116/116 29/115/115 73/134/133 128/133/132
f 135/229/228 147/125/125 80/128/127 32/230/229
f 615/231/230 22/232/231 79/122/122 630/121/121
f 97/233/86 15/234/59 78/118/118 111/117/117
f 115/235/56 14/236/55 77/114/114 129/113/113
f 179/237/232 86/238/233 84/58/58 178/57/57
f 131/239/234 85/240/235 82/54/54 130/53/53
f 157/241/236 391/242/237 384/50/50 156/49/49
f 191/243/238 88/244/239 83/46/46 190/45/45
f 168/245/240 87/246/241 81/42/42 167/41/41
f 160/6/6 1/2/2 87/246/241 168/245/240
f 183/18/18 7/15/15 88/244/239 191/243/238
f 149/1/1 282/247/242 391/242/237 157/241/236
f 112/10/10 3/7/7 85/240/235 131/239/234
f 171/14/14 5/11/11 86/238/233 179/237/232
f 113/9/9 6/12/12 91/248/243 132/249/244
f 184/17/17 293/20/20 397/250/245 192/251/246
f 161/5/5 4/8/8 92/252/247 169/253/248
f 172/13/13 8/16/16 90/254/249 180/255/250
f 150/4/4 2/3/3 89/256/251 158/257/252
f 133/258/126 22/259/231 94/130/129 148/129/128
f 176/88/88 23/87/87 96/110/110 181/109/109
f 188/92/92 24/91/91 95/106/106 193/105/105
f 154/96/96 316/95/95 400/102/102 159/101/101
f 165/84/84 21/83/83 93/98/98 170/97/97
f 23/127/87 97/233/86 111/117/117 80/128/127
f 32/230/229 100/120/120 110/145/144 75/138/137
f 39/151/150 101/164/163 109/169/168 71/174/173
f 47/175/174 103/172/171 108/189/188 68/194/193
f 51/195/194 104/192/191 107/201/200 64/210/209
f 55/211/210 105/204/203 106/217/216 59/222/221
f 59/222/221 106/217/216 414/220/219 354/223/222
f 64/210/209 107/201/200 105/204/203 55/211/210
f 68/194/193 108/189/188 104/192/191 51/195/194
f 71/174/173 109/169/168 103/172/171 47/175/174
f 35/139/138 99/148/147 102/161/160 41/150/149
f 41/150/149 102/161/160 101/164/163 39/151/150
f 75/138/137 110/145/144 99/148/147 35/139/138
f 80/128/127 111/117/117 100/120/120 32/230/229
f 186/48/48 16/47/47 98/90/90 194/89/89
f 174/60/60 15/59/59 97/86/86 182/85/85
f 4/8/8 113/9/9 132/249/244 92/252/247
f 5/11/11 112/10/10 131/239/234 86/238/233
f 86/238/233 131/239/234 130/53/53 84/58/58
f 15/234/59 115/235/56 129/113/113 78/118/118
f 30/119/119 117/116/116 128/133/132 74/146/145
f 38/163/162 119/160/159 127/165/164 70/170/169
f 46/171/170 121/168/167 126/185/184 67/190/189
f 50/191/190 122/188/187 125/197/196 62/202/201
f 54/203/202 123/200/199 124/213/212 57/218/217
f 57/218/217 124/213/212 433/216/215 353/219/218
f 62/202/201 125/197/196 123/200/199 54/203/202
f 67/190/189 126/185/184 122/188/187 50/191/190
f 70/170/169 127/165/164 121/168/167 46/171/170
f 34/147/146 118/136/135 120/157/156 44/162/161
f 44/162/161 120/157/156 119/160/159 38/163/162
f 74/146/145 128/133/132 118/136/135 34/147/146
f 78/118/118 129/113/113 117/116/116 30/119/119
f 706/66/66 693/69/69 116/72/72 18/67/67
f 84/58/58 130/53/53 115/56/56 15/59/59
f 712/30/30 716/37/37 114/40/40 10/31/31
f 4/8/8 3/7/7 112/10/10 113/9/9
f 23/87/87 133/258/126 148/129/128 96/110/110
f 33/260/123 79/261/122 147/125/125 135/229/228
f 33/260/123 135/229/228 146/137/136 76/262/141
f 40/263/154 137/152/151 145/173/172 72/264/177
f 48/265/178 139/176/175 144/193/192 65/266/181
f 52/267/182 140/196/195 143/209/208 63/268/205
f 56/269/206 141/212/211 142/221/220 60/270/225
f 60/270/225 142/221/220 452/224/223 356/271/226
f 63/268/205 143/209/208 141/212/211 56/269/206
f 65/266/181 144/193/192 140/196/195 52/267/182
f 72/264/177 145/173/172 139/176/175 48/265/178
f 36/272/142 136/140/139 138/149/148 42/273/153
f 42/273/153 138/149/148 137/152/151 40/263/154
f 76/262/141 146/137/136 136/140/139 36/272/142
f 96/110/110 148/129/128 134/132/131 27/111/111
f 79/261/122 22/274/231 133/126/126 147/125/125
f 21/83/83 154/96/96 159/101/101 93/98/98
f 284/275/253 150/4/4 158/257/252 393/276/254
f 1/2/2 149/1/1 157/241/236 87/246/241
f 87/246/241 157/241/236 156/49/49 81/42/42
f 93/98/98 159/101/101 155/104/104 25/99/99
f 614/82/82 631/93/93 154/96/96 21/83/83
f 705/277/255 694/61/61 153/64/64 306/278/256
f 81/42/42 156/49/49 152/52/52 13/43/43
f 714/279/257 717/21/21 151/24/24 294/280/258
f 282/247/242 149/1/1 150/4/4 284/275/253
f 22/259/231 165/84/84 170/97/97 94/130/129
f 2/3/3 161/5/5 169/253/248 89/256/251
f 3/7/7 160/6/6 168/245/240 85/240/235
f 85/240/235 168/245/240 167/41/41 82/54/54
f 94/130/129 170/97/97 166/100/100 26/131/130
f 615/281/230 632/81/81 165/84/84 22/259/231
f 690/62/62 695/65/65 164/68/68 17/63/63
f 82/54/54 167/41/41 163/44/44 14/55/55
f 710/22/22 718/29/29 162/32/32 9/23/23
f 2/3/3 1/2/2 160/6/6 161/5/5
f 16/47/47 174/60/60 182/85/85 98/90/90
f 24/91/91 176/88/88 181/109/109 95/106/106
f 6/12/12 172/13/13 180/255/250 91/248/243
f 7/15/15 171/14/14 179/237/232 88/244/239
f 88/244/239 179/237/232 178/57/57 83/46/46
f 95/106/106 181/109/109 177/112/112 28/107/107
f 98/90/90 182/85/85 176/88/88 24/91/91
f 707/70/70 696/73/73 175/76/76 19/71/71
f 83/46/46 178/57/57 174/60/60 16/47/47
f 715/38/38 719/25/25 173/28/28 11/39/39
f 6/12/12 5/11/11 171/14/14 172/13/13
f 305/282/259 186/48/48 194/89/89 406/283/260
f 317/284/261 188/92/92 193/105/105 402/285/262
f 8/16/16 184/17/17 192/251/246 90/254/249
f 292/19/19 183/18/18 191/243/238 387/286/263
f 387/286/263 191/243/238 190/45/45 383/287/264
f 402/285/262 193/105/105 189/108/108 323/288/265
f 406/283/260 194/89/89 188/92/92 317/284/261
f 691/74/74 697/77/77 187/80/80 20/75/75
f 383/287/264 190/45/45 186/48/48 305/282/259
f 711/26/26 720/33/33 185/36/36 12/27/27
f 8/16/16 7/15/15 183/18/18 184/17/17
f 205/289/266 204/290/267 197/291/268 199/292/269
f 207/293/270 206/294/271 201/295/272 195/296/273
f 208/297/274 207/293/270 195/296/273 200/298/275
f 209/299/276 522/300/277 511/301/278 203/302/279
f 210/303/280 209/299/276 203/302/279 198/304/281
f 206/294/271 211/305/282 196/306/283 201/295/272
f 526/307/284 208/297/274 200/298/275 506/308/285
f 204/290/267 212/309/286 202/310/287 197/291/268
f 212/309/286 210/303/280 198/304/281 202/310/287
f 211/305/282 205/289/266 199/292/269 196/306/283
f 18/67/67 116/72/72 205/289/266 211/305/282
f 175/76/76 20/75/75 210/303/280 212/309/286
f 19/71/71 175/76/76 212/309/286 204/290/267
f 306/278/256 153/64/64 208/297/274 526/307/284
f 164/68/68 18/67/67 211/305/282 206/294/271
f 20/75/75 187/80/80 209/299/276 210/303/280
f 187/80/80 311/79/79 522/300/277 209/299/276
f 153/64/64 17/63/63 207/293/270 208/297/274
f 17/63/63 164/68/68 206/294/271 207/293/270
f 116/72/72 19/71/71 204/290/267 205/289/266
f 235/311/288 231/312/289 217/313/290 214/314/291
f 556/315/292 232/316/293 218/317/294 528/318/295
f 236/319/296 235/311/288 214/314/291 219/320/297
f 237/321/298 233/322/299 221/323/300 216/324/301
f 238/325/302 234/326/303 220/327/304 215/328/305
f 234/326/303 237/321/298 216/324/301 220/327/304
f 231/312/289 238/325/302 215/328/305 217/313/290
f 239/329/306 236/319/296 219/320/297 213/330/307
f 233/322/299 554/331/308 533/332/309 221/323/300
f 232/316/293 239/329/306 213/330/307 218/317/294
f 200/333/275 195/334/273 230/335/310 224/336/311
f 203/337/279 511/338/278 549/339/312 226/340/313
f 195/334/273 201/341/272 225/342/314 230/335/310
f 199/343/269 197/344/268 229/345/315 222/346/316
f 202/347/287 198/348/281 227/349/317 228/350/318
f 197/344/268 202/347/287 228/350/318 229/345/315
f 198/348/281 203/337/279 226/340/313 227/349/317
f 201/341/272 196/351/283 223/352/319 225/342/314
f 506/353/285 200/333/275 224/336/311 542/354/320
f 196/351/283 199/343/269 222/346/316 223/352/319
f 224/336/311 230/335/310 239/329/306 232/316/293
f 226/340/313 549/339/312 554/331/308 233/322/299
f 230/335/310 225/342/314 236/319/296 239/329/306
f 222/346/316 229/345/315 238/325/302 231/312/289
f 228/350/318 227/349/317 237/321/298 234/326/303
f 229/345/315 228/350/318 234/326/303 238/325/302
f 227/349/317 226/340/313 233/322/299 237/321/298
f 225/342/314 223/352/319 235/311/288 236/319/296
f 542/354/320 224/336/311 232/316/293 556/315/292
f 223/352/319 222/346/316 231/312/289 235/311/288
f 213/330/307 219/320/297 246/355/321 240/356/322
f 221/323/300 533/332/309 566/357/323 248/358/324
f 218/317/294 213/330/307 240/356/322 245/359/325
f 214/314/291 217/313/290 244/360/326 241/361/327
f 528/318/295 218/317/294 245/359/325 561/362/328
f 219/320/297 214/314/291 241/361/327 246/355/321
f 216/324/301 221/323/300 248/358/324 243/363/329
f 215/328/305 220/327/304 247/364/330 242/365/331
f 220/327/304 216/324/301 243/363/329 247/364/330
f 217/313/290 215/328/305 242/365/331 244/360/326
f 253/366/332 252/367/333 572/368/334 573/369/335
f 254/370/336 253/366/332 573/369/335 574/371/337
f 245/359/325 254/370/336 574/371/337 561/362/328
f 246/355/321 241/361/327 251/372/338 240/356/322
f 241/361/327 244/360/326 250/373/339 251/372/338
f 244/360/326 242/365/331 249/374/340 250/373/339
f 240/356/322 251/372/338 254/370/336 245/359/325
f 251/372/338 250/373/339 253/366/332 254/370/336
f 250/373/339 249/374/340 252/367/333 253/366/332
f 252/367/333 248/358/324 566/357/323 572/368/334
f 242/365/331 247/364/330 243/363/329 249/374/340
f 249/374/340 243/363/329 248/358/324 252/367/333
f 273/375/341 603/376/342 582/377/343 256/378/344
f 274/379/345 273/375/341 256/378/344 255/380/346
f 276/381/347 275/382/348 257/383/349 258/384/350
f 275/382/348 277/385/351 259/386/352 257/383/349
f 277/385/351 274/379/345 255/380/346 259/386/352
f 279/387/353 278/388/354 260/389/355 262/390/356
f 278/388/354 276/381/347 258/384/350 260/389/355
f 280/391/357 279/387/353 262/390/356 261/392/358
f 281/393/359 280/391/357 261/392/358 263/394/360
f 613/395/361 281/393/359 263/394/360 590/396/362
f 258/384/350 257/383/349 266/397/363 267/398/364
f 263/394/360 261/392/358 270/399/365 272/400/366
f 259/386/352 255/380/346 264/401/367 268/402/368
f 255/380/346 256/378/344 265/403/369 264/401/367
f 260/389/355 258/384/350 267/398/364 269/404/370
f 261/392/358 262/390/356 271/405/371 270/399/365
f 256/378/344 582/377/343 593/406/372 265/403/369
f 590/396/362 263/394/360 272/400/366 601/407/373
f 257/383/349 259/386/352 268/402/368 266/397/363
f 262/390/356 260/389/355 269/404/370 271/405/371
f 323/408/265 189/409/108 281/393/359 613/395/361
f 189/409/108 28/410/107 280/391/357 281/393/359
f 28/410/107 177/411/112 279/387/353 280/391/357
f 27/412/111 134/413/131 276/381/347 278/388/354
f 177/411/112 27/412/111 278/388/354 279/387/353
f 166/414/100 25/415/99 274/379/345 277/385/351
f 26/416/130 166/414/100 277/385/351 275/382/348
f 134/413/131 26/416/130 275/382/348 276/381/347
f 25/415/99 155/417/104 273/375/341 274/379/345
f 155/417/104 322/418/103 603/376/342 273/375/341
f 460/419/374 461/420/375 285/421/376 283/422/377
f 472/423/378 287/424/379 286/425/380 471/426/381
f 422/427/382 289/428/383 288/429/384 421/430/385
f 483/431/386 291/432/387 290/433/388 482/434/389
f 495/435/390 293/436/20 292/437/19 494/438/391
f 726/439/392 462/440/393 295/441/394 721/442/395
f 728/443/396 484/444/397 298/445/398 722/446/399
f 727/447/400 473/448/401 296/449/402 723/450/403
f 729/451/404 496/452/405 299/453/35 713/454/34
f 725/455/406 423/456/407 297/457/408 724/458/409
f 478/459/410 474/460/411 301/461/412 380/462/413
f 501/463/414 497/464/415 304/465/416 382/466/417
f 467/467/418 463/468/419 300/51/51 384/50/50
f 440/469/420 424/470/421 302/471/422 381/472/423
f 489/473/424 485/474/425 303/475/426 385/476/427
f 701/477/428 464/478/429 307/479/430 698/480/431
f 702/481/432 475/482/433 308/483/434 708/484/435
f 700/485/436 425/486/437 309/487/438 709/488/439
f 703/489/440 486/490/441 310/491/442 699/492/443
f 704/493/444 498/494/445 311/79/79 692/78/78
f 649/495/446 476/496/447 312/497/448 633/498/449
f 493/499/450 487/500/451 314/501/452 404/502/453
f 505/503/454 499/504/455 315/505/456 405/506/457
f 648/507/458 465/508/459 316/95/95 616/94/94
f 481/509/460 477/510/461 318/511/462 398/512/463
f 470/513/464 466/514/465 322/103/103 400/102/102
f 504/515/466 500/516/467 321/517/468 401/518/469
f 492/519/470 488/520/471 320/521/472 403/522/473
f 439/523/474 426/524/475 324/525/476 376/526/477
f 420/527/478 408/528/479 325/529/480 377/530/481
f 647/531/482 636/532/483 328/533/484 378/534/485
f 458/535/486 379/536/487 314/537/452 443/538/488
f 459/539/489 444/540/490 319/541/491 399/542/492
f 438/543/493 427/544/494 326/545/495 372/546/496
f 457/547/497 446/548/498 330/549/499 374/550/500
f 646/551/501 635/552/502 331/553/503 375/554/504
f 419/555/505 407/556/506 329/557/507 373/558/508
f 448/559/509 447/560/510 334/561/511 336/562/512
f 638/563/513 637/564/514 335/565/515 337/566/516
f 429/567/517 428/568/518 332/569/519 338/570/520
f 410/571/521 409/572/522 333/573/523 339/574/524
f 407/556/506 410/571/521 339/574/524 329/557/507
f 427/544/494 429/567/517 338/570/520 326/545/495
f 635/552/502 638/563/513 337/566/516 331/553/503
f 446/548/498 448/559/509 336/562/512 330/549/499
f 437/575/525 430/576/526 340/577/527 368/578/528
f 418/579/529 411/580/530 341/581/531 369/582/532
f 456/583/533 449/584/534 342/585/535 370/586/536
f 645/587/537 639/588/538 343/589/539 371/590/540
f 644/591/541 640/592/542 347/593/543 364/594/544
f 436/595/545 431/596/546 344/597/547 365/598/548
f 417/599/549 412/600/550 345/601/551 366/602/552
f 455/603/553 450/604/554 346/605/555 367/606/556
f 435/607/557 432/608/558 348/609/559 360/610/560
f 416/611/561 413/612/562 349/613/563 361/614/564
f 643/615/565 641/616/566 352/617/567 362/618/568
f 454/619/569 451/620/570 350/621/571 363/622/572
f 434/623/573 433/216/215 351/215/214 357/624/574
f 415/625/575 414/220/219 353/219/218 355/626/576
f 453/627/577 452/224/223 354/223/222 358/628/578
f 642/629/579 624/228/227 356/227/226 359/630/580
f 641/616/566 642/629/579 359/630/580 352/617/567
f 451/620/570 453/627/577 358/628/578 350/621/571
f 413/612/562 415/625/575 355/626/576 349/613/563
f 432/608/558 434/623/573 357/624/574 348/609/559
f 450/604/554 454/619/569 363/622/572 346/605/555
f 640/592/542 643/615/565 362/618/568 347/593/543
f 412/600/550 416/611/561 361/614/564 345/601/551
f 431/596/546 435/607/557 360/610/560 344/597/547
f 449/584/534 455/603/553 367/606/556 342/585/535
f 411/580/530 417/599/549 366/602/552 341/581/531
f 430/576/526 436/595/545 365/598/548 340/577/527
f 639/588/538 644/591/541 364/594/544 343/589/539
f 637/564/514 645/587/537 371/590/540 335/565/515
f 447/560/510 456/583/533 370/586/536 334/561/511
f 409/572/522 418/579/529 369/582/532 333/573/523
f 428/568/518 437/575/525 368/578/528 332/569/519
f 408/528/479 419/555/505 373/558/508 325/529/480
f 636/532/483 646/551/501 375/554/504 328/533/484
f 445/631/581 457/547/497 374/550/500 327/632/582
f 426/524/475 438/543/493 372/546/496 324/525/476
f 445/631/581 327/632/582 379/536/487 458/535/486
f 634/633/583 647/531/482 378/534/485 313/634/584
f 404/635/453 420/527/478 377/530/481 303/636/426
f 424/637/421 439/523/474 376/526/477 302/638/422
f 490/639/585 489/473/424 385/476/427 388/640/586
f 441/641/587 440/469/420 381/472/423 386/642/588
f 468/643/589 467/467/418 384/50/50 391/242/237
f 502/644/590 501/463/414 382/466/417 390/645/591
f 479/646/592 478/459/410 380/462/413 389/647/593
f 471/426/381 479/646/592 389/647/593 283/422/377
f 494/438/391 502/644/590 390/645/591 290/433/388
f 460/419/374 468/643/589 391/242/237 282/247/242
f 421/430/385 441/641/587 386/642/588 286/425/380
f 482/434/389 490/639/585 388/640/586 288/429/384
f 422/427/382 442/648/594 395/649/595 289/428/383
f 495/435/390 503/650/596 397/651/245 293/436/20
f 472/423/378 480/652/597 396/653/598 287/424/379
f 483/431/386 491/654/599 394/655/600 291/432/387
f 461/420/375 469/656/601 392/657/602 285/421/376
f 443/658/488 459/539/489 399/542/492 313/659/584
f 487/500/451 492/519/470 403/522/473 314/501/452
f 499/504/455 504/515/466 401/518/469 315/505/456
f 465/508/459 470/513/464 400/102/102 316/95/95
f 476/496/447 481/509/460 398/512/463 312/497/448
f 314/537/452 379/536/487 420/527/478 404/635/453
f 327/632/582 374/550/500 419/555/505 408/528/479
f 334/561/511 370/586/536 418/579/529 409/572/522
f 342/585/535 367/606/556 417/599/549 411/580/530
f 346/605/555 363/622/572 416/611/561 412/600/550
f 350/621/571 358/628/578 415/625/575 413/612/562
f 358/628/578 354/223/222 414/220/219 415/625/575
f 363/622/572 350/621/571 413/612/562 416/611/561
f 367/606/556 346/605/555 412/600/550 417/599/549
f 370/586/536 342/585/535 411/580/530 418/579/529
f 330/549/499 336/562/512 410/571/521 407/556/506
f 336/562/512 334/561/511 409/572/522 410/571/521
f 374/550/500 330/549/499 407/556/506 419/555/505
f 379/536/487 327/632/582 408/528/479 420/527/478
f 497/464/415 505/503/454 405/506/457 304/465/416
f 485/474/425 493/499/450 404/502/453 303/475/426
f 287/424/379 396/653/598 442/648/594 422/427/382
f 288/429/384 388/640/586 441/641/587 421/430/385
f 388/640/586 385/476/427 440/469/420 441/641/587
f 303/636/426 377/530/481 439/523/474 424/637/421
f 325/529/480 373/558/508 438/543/493 426/524/475
f 333/573/523 369/582/532 437/575/525 428/568/518
f 341/581/531 366/602/552 436/595/545 430/576/526
f 345/601/551 361/614/564 435/607/557 431/596/546
f 349/613/563 355/626/576 434/623/573 432/608/558
f 355/626/576 353/219/218 433/216/215 434/623/573
f 361/614/564 349/613/563 432/608/558 435/607/557
f 366/602/552 345/601/551 431/596/546 436/595/545
f 369/582/532 341/581/531 430/576/526 437/575/525
f 329/557/507 339/574/524 429/567/517 427/544/494
f 339/574/524 333/573/523 428/568/518 429/567/517
f 373/558/508 329/557/507 427/544/494 438/543/493
f 377/530/481 325/529/480 426/524/475 439/523/474
f 708/484/435 308/483/434 425/486/437 700/485/436
f 385/476/427 303/475/426 424/470/421 440/469/420
f 723/450/403 296/449/402 423/456/407 725/455/406
f 287/424/379 422/427/382 421/430/385 286/425/380
f 314/501/452 403/522/473 459/539/489 443/658/488
f 328/660/484 445/631/581 458/535/486 378/661/485
f 328/660/484 375/662/504 457/547/497 445/631/581
f 335/663/515 371/664/540 456/583/533 447/560/510
f 343/665/539 364/666/544 455/603/553 449/584/534
f 347/667/543 362/668/568 454/619/569 450/604/554
f 352/669/567 359/670/580 453/627/577 451/620/570
f 359/670/580 356/271/226 452/224/223 453/627/577
f 362/668/568 352/669/567 451/620/570 454/619/569
f 364/666/544 347/667/543 450/604/554 455/603/553
f 371/664/540 343/665/539 449/584/534 456/583/533
f 331/671/503 337/672/516 448/559/509 446/548/498
f 337/672/516 335/663/515 447/560/510 448/559/509
f 375/662/504 331/671/503 446/548/498 457/547/497
f 403/522/473 320/521/472 444/540/490 459/539/489
f 378/661/485 458/535/486 443/538/488 313/673/584
f 312/497/448 398/512/463 470/513/464 465/508/459
f 284/275/253 393/276/254 469/656/601 461/420/375
f 283/422/377 389/647/593 468/643/589 460/419/374
f 389/647/593 380/462/413 467/467/418 468/643/589
f 398/512/463 318/511/462 466/514/465 470/513/464
f 633/498/449 312/497/448 465/508/459 648/507/458
f 705/277/255 306/278/256 464/478/429 701/477/428
f 380/462/413 301/461/412 463/468/419 467/467/418
f 714/279/257 294/280/258 462/440/393 726/439/392
f 282/247/242 284/275/253 461/420/375 460/419/374
f 313/659/584 399/542/492 481/509/460 476/496/447
f 285/421/376 392/657/602 480/652/597 472/423/378
f 286/425/380 386/642/588 479/646/592 471/426/381
f 386/642/588 381/472/423 478/459/410 479/646/592
f 399/542/492 319/541/491 477/510/461 481/509/460
f 634/674/583 313/659/584 476/496/447 649/495/446
f 698/480/431 307/479/430 475/482/433 702/481/432
f 381/472/423 302/471/422 474/460/411 478/459/410
f 721/442/395 295/441/394 473/448/401 727/447/400
f 285/421/376 472/423/378 471/426/381 283/422/377
f 304/465/416 405/506/457 493/499/450 485/474/425
f 315/505/456 401/518/469 492/519/470 487/500/451
f 289/428/383 395/649/595 491/654/599 483/431/386
f 290/433/388 390/645/591 490/639/585 482/434/389
f 390/645/591 382/466/417 489/473/424 490/639/585
f 401/518/469 321/517/468 488/520/471 492/519/470
f 405/506/457 315/505/456 487/500/451 493/499/450
f 709/488/439 309/487/438 486/490/441 703/489/440
f 382/466/417 304/465/416 485/474/425 489/473/424
f 724/458/409 297/457/408 484/444/397 728/443/396
f 289/428/383 483/431/386 482/434/389 288/429/384
f 305/675/259 406/676/260 505/503/454 497/464/415
f 317/677/261 402/678/262 504/515/466 499/504/455
f 291/432/387 394/655/600 503/650/596 495/435/390
f 292/437/19 387/679/263 502/644/590 494/438/391
f 387/679/263 383/680/264 501/463/414 502/644/590
f 402/678/262 323/681/265 500/516/467 504/515/466
f 406/676/260 317/677/261 499/504/455 505/503/454
f 699/492/443 310/491/442 498/494/445 704/493/444
f 383/680/264 305/675/259 497/464/415 501/463/414
f 722/446/399 298/445/398 496/452/405 729/451/404
f 291/432/387 495/435/390 494/438/391 290/433/388
f 518/682/603 512/683/604 509/684/605 517/685/606
f 520/686/607 507/687/608 514/688/609 519/689/610
f 521/690/611 513/691/612 507/687/608 520/686/607
f 523/692/613 516/693/614 511/301/278 522/300/277
f 524/694/615 510/695/616 516/693/614 523/692/613
f 519/689/610 514/688/609 508/696/617 525/697/618
f 526/307/284 506/308/285 513/691/612 521/690/611
f 517/685/606 509/684/605 515/698/619 527/699/620
f 527/699/620 515/698/619 510/695/616 524/694/615
f 525/697/618 508/696/617 512/683/604 518/682/603
f 308/483/434 525/697/618 518/682/603 425/486/437
f 486/490/441 527/699/620 524/694/615 310/491/442
f 309/487/438 517/685/606 527/699/620 486/490/441
f 306/278/256 526/307/284 521/690/611 464/478/429
f 475/482/433 519/689/610 525/697/618 308/483/434
f 310/491/442 524/694/615 523/692/613 498/494/445
f 498/494/445 523/692/613 522/300/277 311/79/79
f 464/478/429 521/690/611 520/686/607 307/479/430
f 307/479/430 520/686/607 519/689/610 475/482/433
f 425/486/437 518/682/603 517/685/606 309/487/438
f 555/700/621 530/701/622 534/702/623 550/703/624
f 556/315/292 528/318/295 535/704/625 551/705/626
f 557/706/627 536/707/628 530/701/622 555/700/621
f 558/708/629 532/709/630 538/710/631 552/711/632
f 559/712/633 531/713/634 537/714/635 553/715/636
f 553/715/636 537/714/635 532/709/630 558/708/629
f 550/703/624 534/702/623 531/713/634 559/712/633
f 560/716/637 529/717/638 536/707/628 557/706/627
f 552/711/632 538/710/631 533/332/309 554/331/308
f 551/705/626 535/704/625 529/717/638 560/716/637
f 513/718/612 541/719/639 548/720/640 507/721/608
f 516/722/614 544/723/641 549/339/312 511/338/278
f 507/721/608 548/720/640 543/724/642 514/725/609
f 512/726/604 539/727/643 547/728/644 509/729/605
f 515/730/619 546/731/645 545/732/646 510/733/616
f 509/729/605 547/728/644 546/731/645 515/730/619
f 510/733/616 545/732/646 544/723/641 516/722/614
f 514/725/609 543/724/642 540/734/647 508/735/617
f 506/353/285 542/354/320 541/719/639 513/718/612
f 508/735/617 540/734/647 539/727/643 512/726/604
f 541/719/639 551/705/626 560/716/637 548/720/640
f 544/723/641 552/711/632 554/331/308 549/339/312
f 548/720/640 560/716/637 557/706/627 543/724/642
f 539/727/643 550/703/624 559/712/633 547/728/644
f 546/731/645 553/715/636 558/708/629 545/732/646
f 547/728/644 559/712/633 553/715/636 546/731/645
f 545/732/646 558/708/629 552/711/632 544/723/641
f 543/724/642 557/706/627 555/700/621 540/734/647
f 542/354/320 556/315/292 551/705/626 541/719/639
f 540/734/647 555/700/621 550/703/624 539/727/643
f 529/717/638 562/736/648 569/737/649 536/707/628
f 538/710/631 571/738/650 566/357/323 533/332/309
f 535/704/625 568/739/651 562/736/648 529/717/638
f 530/701/622 563/740/652 567/741/653 534/702/623
f 528/318/295 561/362/328 568/739/651 535/704/625
f 536/707/628 569/737/649 563/740/652 530/701/622
f 532/709/630 565/742/654 571/738/650 538/710/631
f 531/713/634 564/743/655 570/744/656 537/714/635
f 537/714/635 570/744/656 565/742/654 532/709/630
f 534/702/623 567/741/653 564/743/655 531/713/634
f 579/745/657 573/369/335 572/368/334 578/746/658
f 580/747/659 574/371/337 573/369/335 579/745/657
f 568/739/651 561/362/328 574/371/337 580/747/659
f 569/737/649 562/736/648 577/748/660 563/740/652
f 563/740/652 577/748/660 576/749/661 567/741/653
f 567/741/653 576/749/661 575/750/662 564/743/655
f 562/736/648 568/739/651 580/747/659 577/748/660
f 577/748/660 580/747/659 579/745/657 576/749/661
f 576/749/661 579/745/657 578/746/658 575/750/662
f 578/746/658 572/368/334 566/357/323 571/738/650
f 564/743/655 575/750/662 565/742/654 570/744/656
f 575/750/662 578/746/658 571/738/650 565/742/654
f 604/751/663 583/752/664 582/377/343 603/376/342
f 605/753/665 581/754/666 583/752/664 604/751/663
f 607/755/667 585/756/668 584/757/669 606/758/670
f 606/758/670 584/757/669 586/759/671 608/760/672
f 608/760/672 586/759/671 581/754/666 605/753/665
f 610/761/673 589/762/674 587/763/675 609/764/676
f 609/764/676 587/763/675 585/756/668 607/755/667
f 611/765/677 588/766/678 589/762/674 610/761/673
f 612/767/679 591/768/680 588/766/678 611/765/677
f 613/395/361 590/396/362 591/768/680 612/767/679
f 585/756/668 596/769/681 595/770/682 584/757/669
f 591/768/680 602/771/683 599/772/684 588/766/678
f 586/759/671 597/773/685 592/774/686 581/754/666
f 581/754/666 592/774/686 594/775/687 583/752/664
f 587/763/675 598/776/688 596/769/681 585/756/668
f 588/766/678 599/772/684 600/777/689 589/762/674
f 583/752/664 594/775/687 593/406/372 582/377/343
f 590/396/362 601/407/373 602/771/683 591/768/680
f 584/757/669 595/770/682 597/773/685 586/759/671
f 589/762/674 600/777/689 598/776/688 587/763/675
f 323/408/265 613/395/361 612/767/679 500/778/467
f 500/778/467 612/767/679 611/765/677 321/779/468
f 321/779/468 611/765/677 610/761/673 488/780/471
f 320/781/472 609/764/676 607/755/667 444/782/490
f 488/780/471 610/761/673 609/764/676 320/781/472
f 477/783/461 608/760/672 605/753/665 318/784/462
f 319/785/491 606/758/670 608/760/672 477/783/461
f 444/782/490 607/755/667 606/758/670 319/785/491
f 318/784/462 605/753/665 604/751/663 466/786/465
f 466/786/465 604/751/663 603/376/342 322/418/103
f 302/471/422 634/674/583 649/495/446 474/460/411
f 301/461/412 633/498/449 648/507/458 463/468/419
f 302/638/422 376/526/477 647/531/482 634/633/583
f 324/525/476 372/546/496 646/551/501 636/532/483
f 332/569/519 368/578/528 645/587/537 637/564/514
f 340/577/527 365/598/548 644/591/541 639/588/538
f 344/597/547 360/610/560 643/615/565 640/592/542
f 348/609/559 357/624/574 642/629/579 641/616/566
f 357/624/574 351/215/214 624/228/227 642/629/579
f 360/610/560 348/609/559 641/616/566 643/615/565
f 365/598/548 344/597/547 640/592/542 644/591/541
f 368/578/528 340/577/527 639/588/538 645/587/537
f 326/545/495 338/570/520 638/563/513 635/552/502
f 338/570/520 332/569/519 637/564/514 638/563/513
f 372/546/496 326/545/495 635/552/502 646/551/501
f 376/526/477 324/525/476 636/532/483 647/531/482
f 463/468/419 648/507/458 616/94/94 300/51/51
f 474/460/411 649/495/446 633/498/449 301/461/412
f 14/55/55 163/44/44 632/81/81 615/281/230
f 13/43/43 152/52/52 631/93/93 614/82/82
f 14/236/55 615/231/230 630/121/121 77/114/114
f 29/115/115 618/124/124 629/141/140 73/134/133
f 37/159/158 619/156/155 628/177/176 69/166/165
f 45/167/166 621/180/179 627/181/180 66/186/185
f 49/187/186 622/184/183 626/205/204 61/198/197
f 53/199/198 623/208/207 625/225/224 58/214/213
f 58/214/213 625/225/224 624/228/227 351/215/214
f 61/198/197 626/205/204 623/208/207 53/199/198
f 66/186/185 627/181/180 622/184/183 49/187/186
f 69/166/165 628/177/176 621/180/179 45/167/166
f 31/135/134 617/144/143 620/153/152 43/158/157
f 43/158/157 620/153/152 619/156/155 37/159/158
f 73/134/133 629/141/140 617/144/143 31/135/134
f 77/114/114 630/121/121 618/124/124 29/115/115
f 152/52/52 300/51/51 616/94/94 631/93/93
f 163/44/44 13/43/43 614/82/82 632/81/81
f 684/787/690 662/788/691 669/789/692 689/790/693
f 674/791/694 664/792/695 668/793/696 688/794/697
f 683/795/698 661/796/699 667/797/700 687/798/701
f 670/799/702 651/800/703 666/801/704 686/802/705
f 673/803/706 663/804/707 665/805/708 685/806/709
f 689/790/693 669/789/692 655/807/710 677/808/711
f 688/794/697 668/793/696 662/788/691 684/787/690
f 685/806/709 665/805/708 664/792/695 674/791/694
f 687/798/701 667/797/700 663/804/707 673/803/706
f 686/802/705 666/801/704 661/796/699 683/795/698
f 676/809/712 682/810/713 660/811/714 652/812/715
f 672/813/716 681/814/717 659/815/718 654/816/719
f 675/817/720 680/818/721 658/819/722 650/820/723
f 670/799/702 679/821/724 657/822/725 651/800/703
f 671/823/726 678/824/727 656/825/728 653/826/729
f 682/810/713 677/808/711 655/807/710 660/811/714
f 681/814/717 676/809/712 652/812/715 659/815/718
f 678/824/727 672/813/716 654/816/719 656/825/728
f 680/818/721 671/823/726 653/826/729 658/819/722
f 679/821/724 675/817/720 650/820/723 657/822/725
f 739/827/730 735/828/731 675/817/720 679/821/724
f 740/829/732 731/830/733 671/823/726 680/818/721
f 738/831/734 732/832/735 672/813/716 678/824/727
f 741/833/736 736/834/737 676/809/712 681/814/717
f 742/835/738 737/836/739 677/808/711 682/810/713
f 731/830/733 738/831/734 678/824/727 671/823/726
f 730/837/740 739/827/730 679/821/724 670/799/702
f 735/828/731 740/829/732 680/818/721 675/817/720
f 732/832/735 741/833/736 681/814/717 672/813/716
f 736/834/737 742/835/738 682/810/713 676/809/712
f 746/838/741 686/802/705 683/795/698 743/839/742
f 747/840/743 687/798/701 673/803/706 733/841/744
f 745/842/745 685/806/709 674/791/694 734/843/746
f 748/844/747 688/794/697 684/787/690 744/845/748
f 749/846/749 689/790/693 677/808/711 737/836/739
f 733/841/744 673/803/706 685/806/709 745/842/745
f 730/837/740 670/799/702 686/802/705 746/838/741
f 743/839/742 683/795/698 687/798/701 747/840/743
f 734/843/746 674/791/694 688/794/697 748/844/747
f 744/845/748 684/787/690 689/790/693 749/846/749
f 662/788/691 699/492/443 704/493/444 669/789/692
f 664/792/695 709/488/439 703/489/440 668/793/696
f 661/796/699 698/480/431 702/481/432 667/797/700
f 651/800/703 705/277/255 701/477/428 666/801/704
f 663/804/707 708/484/435 700/485/436 665/805/708
f 669/789/692 704/493/444 692/78/78 655/807/710
f 668/793/696 703/489/440 699/492/443 662/788/691
f 665/805/708 700/485/436 709/488/439 664/792/695
f 667/797/700 702/481/432 708/484/435 663/804/707
f 666/801/704 701/477/428 698/480/431 661/796/699
f 652/812/715 660/811/714 697/77/77 691/74/74
f 654/816/719 659/815/718 696/73/73 707/70/70
f 650/820/723 658/819/722 695/65/65 690/62/62
f 651/800/703 657/822/725 694/61/61 705/277/255
f 653/826/729 656/825/728 693/69/69 706/66/66
f 660/811/714 655/807/710 692/78/78 697/77/77
f 659/815/718 652/812/715 691/74/74 696/73/73
f 656/825/728 654/816/719 707/70/70 693/69/69
f 658/819/722 653/826/729 706/66/66 695/65/65
f 657/822/725 650/820/723 690/62/62 694/61/61
f 394/655/600 722/446/399 729/451/404 503/650/596
f 395/649/595 724/458/409 728/443/396 491/654/599
f 392/657/602 721/442/395 727/447/400 480/652/597
f 393/276/254 714/279/257 726/439/392 469/656/601
f 396/653/598 723/450/403 725/455/406 442/648/594
f 442/648/594 725/455/406 724/458/409 395/649/595
f 503/650/596 729/451/404 713/454/34 397/651/245
f 480/652/597 727/447/400 723/450/403 396/653/598
f 491/654/599 728/443/396 722/446/399 394/655/600
f 469/656/601 726/439/392 721/442/395 392/657/602
f 90/254/249 192/251/246 720/33/33 711/26/26
f 91/248/243 180/255/250 719/25/25 715/38/38
f 89/256/251 169/253/248 718/29/29 710/22/22
f 393/276/254 158/257/252 717/21/21 714/279/257
f 92/252/247 132/249/244 716/37/37 712/30/30
f 132/249/244 91/248/243 715/38/38 716/37/37
f 192/251/246 397/250/245 713/34/34 720/33/33
f 169/253/248 92/252/247 712/30/30 718/29/29
f 180/255/250 90/254/249 711/26/26 719/25/25
f 158/257/252 89/256/251 710/22/22 717/21/21
f 298/847/398 744/845/748 749/846/749 496/848/405
f 297/849/408 734/843/746 748/844/747 484/850/397
f 295/851/394 743/839/742 747/840/743 473/852/401
f 294/853/258 730/837/740 746/838/741 462/854/393
f 296/855/402 733/841/744 745/842/745 423/856/407
f 496/848/405 749/846/749 737/836/739 299/857/35
f 484/850/397 748/844/747 744/845/748 298/847/398
f 423/856/407 745/842/745 734/843/746 297/849/408
f 473/852/401 747/840/743 733/841/744 296/855/402
f 462/854/393 746/838/741 743/839/742 295/851/394
f 12/858/27 185/859/36 742/835/738 736/834/737
f 11/860/39 173/861/28 741/833/736 732/832/735
f 9/862/23 162/863/32 740/829/732 735/828/731
f 294/853/258 151/864/24 739/827/730 730/837/740
f 10/865/31 114/866/40 738/831/734 731/830/733
f 185/859/36 299/857/35 737/836/739 742/835/738
f 173/861/28 12/858/27 736/834/737 741/833/736
f 114/866/40 11/860/39 732/832/735 738/831/734
f 162/863/32 10/865/31 731/830/733 740/829/732
f 151/864/24 9/862/23 735/828/731 739/827/730
